<?xml version="1.0" encoding="utf-8"?>
<!-- Generator: Adobe Illustrator 19.0.0, SVG Export Plug-In . SVG Version: 6.00 Build 0)  -->
<svg version="1.1" id="Capa_1" xmlns="http://www.w3.org/2000/svg" xmlns:xlink="http://www.w3.org/1999/xlink" x="0px" y="0px"
	 viewBox="0 0 134.9 167.3" style="enable-background:new 0 0 134.9 167.3;" xml:space="preserve">
<style type="text/css">
	.st0{fill-rule:evenodd;clip-rule:evenodd;fill:#98999B;}
</style>
<g>
	<path class="st0" d="M68.3,147.8c-0.5,0.9-1,1.9-1.6,2.8c-0.4,0.7-0.9,1.3-1.4,1.9c-1,1.1-2.1,2.2-3.2,3.3
		c-0.2,0.2-0.4,0.6-0.6,0.9c-1.1,1.3-2.5,2.3-4,3c-1.6,0.7-3.3,0.9-5,0.3c-0.8-0.3-1.4-0.8-2.2-1c-1.3-0.3-2.6-0.5-3.9-0.6
		c-1.2-0.1-2.3-0.6-3.4-1c-1.3-0.5-2.2-1.5-3.4-2.2c-1.3-0.8-2.6-1.4-4-2c-2.1-0.9-4.2-1.9-5.7-3.8c-1.3-1.6-2.7-3-4.3-4.3
		c-1.7-1.4-3.4-2.9-4.8-4.6c-1.4-1.5-2.5-3.3-3.4-5.2c-0.6-1.3-0.8-2.8-1.2-4.1c-0.3-0.9-0.8-1.8-1.2-2.7c-0.5-1.1-1.1-2.2-1.5-3.4
		c-0.2-0.6-0.2-1.4-0.2-2c-0.1-1.4,0.1-2.8-0.2-4.1c-0.2-0.9-0.9-1.8-1.3-2.7c-0.5-1-1.2-1.9-1.6-2.9c-0.2-0.6-0.2-1.4-0.1-2.1
		c0.1-1.4,0.3-2.8,0.5-4.2c0.2-2-0.4-3.8-1.5-5.5c-0.8-1.3-1.2-2.7-1.4-4.2c-0.2-1.4-0.3-2.9-0.1-4.3c0.1-1.3,0.7-2.6,1.1-3.9
		c0.3-0.9,0.6-1.8,0.9-2.8c0.3-1.1,0.7-2.2,0.8-3.3c0.1-0.8-0.2-1.6-0.3-2.4c-0.1-1.2-0.2-2.4-0.1-3.6c0-0.7,0.3-1.3,0.5-2
		c0-0.1,0-0.2,0-0.2c-1-2.1-1.1-4.3-0.4-6.5c0.3-0.8,0.6-1.5,1-2.1c1-1.5,1.5-3.1,1.3-5c-0.3-2.7,0.1-5.3,1.6-7.6
		c0.7-1.1,1.3-2.4,1.7-3.8c0.4-1.3-0.1-2.6,0.1-3.9c0.1-1.2,0-2.5,0.3-3.7c0.4-1.4,1-2.8,1.6-4.2c0.9-2.1,2.4-3.8,3.9-5.5
		c1.1-1.2,2.3-2.3,3.5-3.5c1.7-1.6,3.1-3.5,4-5.6c0.9-2.1,2.4-3.8,3.9-5.6c0.4-0.4,0.7-0.9,0.9-1.4c0.8-1.8,2-3.4,3.8-4.3
		c0.5-0.3,1-0.5,1.6-0.6c1.4-0.3,2.6-1.2,3.8-1.8c0.3-0.2,0.7-0.4,1.1-0.5c1.7-0.7,3.6-0.7,5.4-1c1.2-0.2,2.5-0.6,3.6-1.3
		c3-1.7,6.2-2.3,9.5-1.2c1.4,0.4,2.7,1.1,3.7,2.3c0.9,1,1.7,1.9,2.2,3.1c0.2,0.5,0.9,0.7,1.3,0.3c0.9-0.9,2-1.5,2.8-2.6
		c0.7-0.9,1.7-1.5,2.6-2.2C75.5,6.2,76,6,76.5,5.7c0.6-0.4,1.3-0.2,1.9-0.1c1.8,0.4,3.6,0.9,5.4,1.4c0.8,0.2,1.5,0.5,2.3,0.8
		c0.2,0.1,0.4,0.1,0.5,0.1c1.5-0.1,2.8,0.4,4.1,1c0.8,0.4,1.6,0.7,2.5,0.9c1.6,0.3,3.1,0.9,4.5,1.6c1.4,0.7,2.6,1.8,3.5,3.1
		c1.5,1.9,2.9,4,4.2,6c1.1,1.7,2,3.6,3.1,5.3c1.1,1.6,2.3,3.2,3.4,4.8c1.1,1.6,2.3,3.1,3.5,4.7c0.6,0.7,1.2,1.4,1.8,2.1
		c1.7,1.9,2.9,4,3.4,6.4c0.3,1.2,0.5,2.4,0.7,3.6c0.1,0.3,0,0.7,0,1c-0.1,1,0.1,2,0.2,3c0.2,1.1,0.5,2.1,0.9,3.1
		c0.6,1.4,1.3,2.8,1.9,4.2c0.4,1,0.6,2,1,3c0.4,1.2,0.4,2.4,0.4,3.7c0,0.4-0.1,0.9-0.2,1.3c-0.2,1,0,1.9,0.5,2.7
		c0.8,1.5,1.5,3,1.9,4.6c0.1,0.6,0.2,1.2,0.2,1.9c0.1,2.1,0.2,4.2,0.2,6.3c0,1.4-0.1,2.8-0.3,4.2c-0.1,1.2-0.1,2.3,0.2,3.4
		c0.5,2,1.2,4,1.1,6.1c-0.1,1.6-0.2,3.3-0.8,4.9c-0.1,0.3-0.1,0.6-0.1,1c-0.2,1.3-0.5,2.6-0.7,3.9c-0.1,0.5-0.1,1-0.1,1.5
		c0,1.5-0.3,3-0.8,4.4c-0.6,1.6-1.3,3.2-2,4.8c-0.3,0.6-0.7,1.1-0.9,1.8c-0.2,0.7-0.2,1.4-0.2,2.2c0,0.4-0.1,0.7-0.1,1.1
		c0,0.8-0.2,1.7-0.1,2.5c0.1,1.8-0.3,3.4-1,5c-0.6,1.3-1.2,2.6-1.8,3.9c-0.6,1.4-1.7,2.3-2.6,3.4c-0.7,0.9-1.4,1.8-1.5,2.9
		c-0.1,1-0.9,1.7-1.4,2.5c-1,1.5-2.5,2.5-4.1,3.2c-1.4,0.6-2.6,1.6-3.5,2.9c-1.9,2.7-4.5,4.6-7.4,6c-3.1,1.4-6,3-8.9,4.7
		c-1.5,0.8-3.1,1.1-4.8,1.3c-1.7,0.2-3.3-0.1-4.9-0.3c-1.2-0.1-2.4-0.4-3.5-0.9c-2.6-1-4.4-2.9-5.8-5.2c-0.6-1.1-1.4-2.1-2.1-3.2
		c-0.5-0.8-1-1.6-1.5-2.4C68.5,147.8,68.4,147.8,68.3,147.8z M53.9,100.2c1.1,0.2,2.1,0.5,3.2,0.7c1.4,0.2,2.8,0.7,3.8-0.9
		c0.4-0.6,0.9-1.2,0.9-2c0-0.4-0.2-0.6-0.5-0.4c-0.5,0.2-0.8,0.6-1,1.1c-0.4,1.3-1.2,1.8-2.6,1.6C56.4,100.3,55.1,100.3,53.9,100.2
		c-0.3-0.1-0.7-0.3-1-0.4c-0.9-0.4-1.3-0.6-1.3-1.6c0-0.7,0-1.4,0-2.2c-0.4,0-0.8,0-1.1,0c-0.8,0.1-1.5-0.1-2-0.8
		c-0.1-0.2-0.2-0.4-0.4-0.5c-0.7-0.6-1.4-1.2-2.4-1.3c-0.1,1.2-0.8,1.9-1.6,2.7c-0.7,0.7-0.8,0.7-0.3,1.6c0.1,0.1,0.1,0.3,0.2,0.4
		c0.4,1,0.8,2,0.4,3c-0.4,1.1,0,1.9,1.1,2.3c0.3,0.1,0.7,0.2,0.9,0.5c0.7,0.6,1.3,1.2,2,1.9c0.1-0.2,0.2-0.4,0.2-0.6
		c0.2-1.1,0.4-2.1,0.6-3.2c0-0.2,0.1-0.4,0.2-0.5c0.5-0.5,1-0.9,1.8-1.1C52.2,100,53,100,53.9,100.2z M107.4,122.5
		c0.8,0,1.8-0.1,2.7,0c1,0.1,1.9,0.3,2.3-0.9c0,0,0.1-0.1,0.1-0.1c1.3-1.3,2.8-2.3,4.4-3.1c0.9-0.5,1.9-1,2.2-2.1
		c0.3-0.9,0.5-1.8,0.7-2.7c0.1-0.9,0-1.8,0.1-2.7c0-0.1,0.2-0.3,0.4-0.4c0.1,0,0.3,0.2,0.3,0.3c0.1,0.8,0.3,1.6,0.3,2.5
		c0,1.1-0.1,2.3-0.3,3.4c-0.2,1.2-0.8,2.1-1.9,2.6c-0.5,0.2-1.1,0.5-1.6,0.6c-1.6,0.5-2.9,1.3-3.6,3c-0.3,0.7-0.4,1.2,0.1,1.9
		c0.4,0.6,0.8,1.3,0.8,2.1c0,2.6-2.4,3.9-4.6,3.4c-1-0.2-1.9-0.8-3-0.5c-0.2,0.1-0.5,0.2-0.6,0.3c-0.6,1.4-1.9,1.9-3.2,2.3
		c-1,0.3-2.3-0.2-2.9-1c-0.4-0.6-0.7-1.2-1-1.8c-0.7-1.1-1.1-1.3-2-1c-0.2,0.1-0.4,0.2-0.7,0.2c-0.2,0-0.4,0-0.6-0.1
		c0,0-0.1-0.2,0-0.3c0.2-0.2,0.5-0.5,0.8-0.6c0.3-0.1,0.7-0.1,1.1-0.1c1.5-0.1,2.1,0.3,2.7,1.7c0.2,0.6,0.6,1.2,1.3,1.4
		c1.1,0.4,2.4,0,3-1c0.6-1,1.5-1.4,2.6-1.3c0.9,0.1,1.7,0.4,2.5,0.6c0.6,0.1,1.3,0.3,1.8,0c1.7-0.9,2-2.9,0.7-4.2
		c-0.7-0.8-1.6-1-2.7-1.1c-1.4,0-2.8-0.2-4.2,0.3c-1.7,0.6-3.4,0.6-5-0.6c-0.6-0.5-1.4-0.8-2.3-0.9c-2.1-0.2-3.6,0.9-4.5,2.5
		c-0.9,1.7-1,3.5-0.5,5.3c0.3,1.1,0.9,2,1.8,2.8c0.7,0.6,1.2,1.3,1.7,2c0.4,0.5,0.7,1.1,1.1,1.6c0.2,0.3,0.6,0.6,1,0.7
		c0.9,0.3,1.9,0.4,2.8,0.6c0.8,0.1,1.5,0.3,2.3-0.4c1.5-1.4,3.5-1.2,5.4-1c1.7,0.2,3.2,0,4.3-1.4c0.4-0.6,0.9-1.2,1.5-1.6
		c1.2-0.7,2.5-1.3,3.8-2c1.2-0.6,2.1-1.5,2.7-2.7c0.6-1.2,0.9-2.6,0.8-4.1c-0.1-0.8-0.1-1.7-0.1-2.6c-0.7,1-1.3,2-2.1,2.9
		c-0.6,0.7-1.1,1.3-1.4,2.2c-0.2,0.7-0.4,1.4-0.6,2.1c0,0.1-0.3,0.4-0.4,0.3c-0.2,0-0.4-0.2-0.5-0.4c-0.1-0.2,0-0.4,0-0.6
		c0.2-1.6,0.9-3,1.7-4.4c0.8-1.5,1.7-2.9,2.5-4.4c0.6-1.1,1.2-2.2,1.9-3.3c0.2-0.3,0.4-0.5,0.6-0.8c0.3-0.8,0.7-1.5,1-2.3
		c0.6-1.8,1.2-3.7,1.6-5.6c0.3-1.5,0.4-3,0.6-4.5c-0.1,0-0.1-0.1-0.2-0.1c-0.2,0.5-0.5,0.9-0.7,1.4c-0.3,0.9-0.6,1.9-0.9,2.8
		c-0.2,0.5-0.4,1.1-1.1,1.3c0-0.3,0-0.4,0.1-0.6c0.1-0.2,0.2-0.5,0.3-0.7c0.4-2.4,1.4-4.6,2.5-6.7c0.9-1.7,1.4-3.5,1.4-5.5
		c0-0.5,0-1-0.1-1.5c-0.4-1.4-0.9-2.8-1.4-4.2c-0.7-2-0.8-3.9-0.6-6c0.1-0.7,0.3-1.5,0.3-2.2c0-1.3-0.3-2.5-0.3-3.7
		c-0.1-2.3-0.4-4.6-1.3-6.8c-0.1-0.3-0.3-0.5-0.4-0.8c-0.6,0.5-0.8,1.5-0.7,2.2c0.2,0.8,0.2,1.7,0.3,2.6c0,0.3-0.2,0.6-0.4,0.9
		c-0.1,0-0.2-0.1-0.2-0.1c0.4-1.1,0.2-2.2-0.2-3.2c-0.7-1.4-0.3-2.8,0.2-4.2c0.1-0.3,0.3-0.6,0.3-0.9c0.2-1,0.4-2,0.5-3.1
		c0.1-0.9,0-1.8-0.1-2.7c-0.1-1-0.4-1.9-0.6-2.9c-0.2-0.7-0.5-1.3-0.8-2c-0.3-0.7-0.7-1.4-0.9-2.1c-0.4-1.3-0.7-2.6-1.1-3.9
		c-0.7,1.3-1.4,2.6-2.1,3.8c-0.4,0.6-0.2,1.2,0.2,1.7c0.1,0.1,0.2,0.2,0.2,0.4c0,0.1,0,0.4-0.1,0.4c-0.1,0.1-0.3,0-0.4-0.1
		c-0.2-0.2-0.4-0.4-0.5-0.7c-0.6-1.4,0-2.8,0.5-4.1c0.5-1.1,0.8-2.2,0.7-3.3c-0.1-1.7-0.3-3.3-0.5-5c-0.2-1.1-0.4-2.2-0.8-3.2
		c-0.5-1.3-1-2.7-2.1-3.7c-0.6-0.6-1-1.4-1.6-2.1c-1-1.1-2-2.2-3-3.3c-0.1-0.2-0.3-0.3-0.6-0.5c0,0.5,0.1,0.8,0.1,1.2
		c0,1.3,0.4,2.3,1.6,3c0.4,0.2,0.7,0.8,0.8,1.3c0.2,1.1,0.2,2.2,0.3,3.4c0,1.1,0,2.2,0.8,3c0.3,0.4,0.6,0.9,0.9,1.3
		c0,0,0.1-0.1,0.1-0.1c-0.1-0.1-0.3-0.1-0.4-0.2c-0.6-0.6-1.4-1.1-1.7-1.8c-0.5-1.2-0.8-2.6-0.8-4c0.1-0.8-0.3-1.3-1.1-1.6
		c-0.7-0.3-1.3-0.8-1.4-1.6c-0.1-0.8-0.2-1.5-0.2-2.3c0.1-1-0.1-2-0.6-2.9c-0.7-1.2-1.5-1.3-2.5-0.3c-1.3,1.4-1.6,4.4,0,5.8
		c0.4,0.3,0.8,0.6,1.2,1c-0.6-0.2-1.1-0.2-1.5-0.4c-0.7-0.4-1.5-0.9-2.1-1.4c-0.9-0.8-0.6-2.6-0.1-3.5c0.7-1,1.3-2,1.7-3.1
		c0.3-1,0.6-2.1,0.2-3.2c-0.2-0.4-0.4-0.7-0.6-1.1c-0.8-1.6-1.9-2.8-3.5-3.6c-1.4-0.7-2.8-1.2-4.4-0.6c-0.3,0.1-0.6,0.4-0.9,0.5
		c-0.3,0.1-0.6-0.1-0.9-0.2c0.1-0.2,0.2-0.5,0.3-0.6c1.4-0.7,2.9-0.7,4.5-0.7c0.5,0,1,0,1.7,0c-0.2-0.4-0.4-0.6-0.5-0.8
		c-0.5-0.6-1-1.1-1.4-1.7c-0.6-1-1.5-1.7-2.3-2.4c-0.3-0.2-0.5-0.5-0.8-0.6c-1.2-0.4-2.4-0.4-3.6,0.1c-0.9,0.3-1.2,1.1-0.7,1.9
		c0.3,0.5,0.7,0.8,1.1,1.3c0.1,0.1,0.3,0.3,0.3,0.4c0,0.1,0,0.3-0.1,0.3c-0.1,0.1-0.2,0.1-0.3,0c-1.1-0.6-2.2-1.1-2.7-2.6
		c-0.3-0.9,0.2-2.2,1.1-2.6c0.4-0.2,0.8-0.3,1.4-0.5c-0.2-0.1-0.3-0.1-0.4-0.2c-1-0.4-2.1-0.7-3.1-1.1c-1.8-0.8-3.7-0.9-5.7-0.6
		c-1.5,0.3-3.1,0.5-4.6,0.7c-0.5,0.1-1.1-0.1-1.6-0.8c0.9-0.1,1.7,0,2.4-0.2c0.8-0.2,1.5-0.5,2.3-0.8c0-0.1,0-0.1,0-0.2
		c-0.5-0.3-1-0.6-1.5-0.8c-1.9-0.7-3.7-0.3-5.6,0.2c-0.4,0.1-0.8,0.3-1.2,0.6c-1.9,1.1-2.9,3.1-4.5,4.5c0.5,0.7,1.9,0.8,2.6,0.2
		c0.5-0.4,1-0.8,1.6-1.1c0.4-0.2,0.8-0.6,1.2-0.6c2.2,0,4.1,1,5.9,2.2c1.1,0.8,2.1,1.8,2.6,3.2c0.2,0.4,0.3,0.8,0.4,1.3
		c0.2-0.1,0.3-0.3,0.4-0.3c0.6-0.4,1.1-0.8,1.7-1.1c1.3-0.5,2.6-0.2,3.9,0.3c1.4,0.7,2,2,2.8,3.3c0.2,0.4,0.4,0.8,0.7,1.1
		c0.5,0.6,1.2,1,1.5,1.6c0.3,0.5,0.6,0.6,1.1,0.6c0.7,0,1.5-0.1,2,0.5c0.6,0.7,1.5,1.2,1.9,2.1c0.4,0.8,1.1,1.4,2.1,1.2
		c0.3,0,0.6-0.2,0.9-0.3c0.2,0,0.4,0,0.6,0c0,0.1,0,0.1,0.1,0.2c-0.2,0.2-0.4,0.4-0.6,0.5c-1.2,0.7-3.6,0.2-4.2-1.2
		c-0.3-0.6-0.7-1.2-1.4-1.5c-1.1-0.7-2.4-0.3-2.7,0.9c-0.5,1.7,0,3.2,1,4.5c0.8,1.1,2.1,1.7,3.4,2.2c0.6,0.3,1.4,0.4,1.8,1
		c0.2,0.3,0.2,0.6,0.4,0.8c0.5,0.5,0.6,1.1,0.6,1.7c0,0.2-0.2,0.4-0.3,0.6c-0.2-0.1-0.4-0.2-0.5-0.4c-0.3-0.6-0.5-1.1-0.7-1.7
		c-0.3-1-1-1.4-2-1.4c-1-0.1-1.9-0.4-2.7-1c-1.3-1.1-1.9-2.5-2.1-4.1c-0.1-1.1,0-2.2,0-3.2c0-0.8-0.2-1.5-0.7-2.2
		c-0.6-0.9-1-1.9-1.6-2.8c-0.3-0.5-0.6-1.1-1-1.5c-1.1-1-3.2-1-4.5-0.3C85.6,18.5,85,19.1,85,20c0,0.7,0.3,1.4,0.7,2
		c0.7,1.1,1.7,1.9,1.9,3.3c0.2,1.1,0,2.1-0.7,2.9c-1.5,1.6-3.4,1.5-4.8-0.2c-0.6-0.7-1.5-0.8-2.1-0.2c-0.5,0.5-1,1-1.5,1.5
		c-0.7,0.8-1.5,1.3-2.6,1.2c-1.7-0.1-3.3-0.6-4.8-1.4c-0.3-0.2-0.7-0.3-1-0.4c0,0.1-0.1,0.2-0.1,0.3c0.3,0.2,0.6,0.5,0.9,0.7
		c0.5,0.3,1.1,0.6,1.6,1c0.4,0.3,0.5,1.2,0.1,1.5c-0.2,0.2-0.5,0.3-0.8,0.5c0.2,0.3,0.5,0.5,0.7,0.8c0.3,0.5,0.8,0.8,1.4,0.9
		c0.8,0.1,1.4,0.6,1.7,1.3c0.4,0.8,0.1,1.3-0.8,1.4c-0.3,0.1-0.5,0.2-0.9,0.3c0.5,0.3,0.9,0.5,1.2,0.6c0.9,0.2,1.3,0.7,1.3,1.6
		c0,0.5-0.1,0.8-0.6,0.9c-0.8,0.2-1.6,0.4-2.5-0.1c0.1,0.2,0.1,0.3,0.3,0.4c0.7,0.4,1.5,0.8,2.2,1.2c0.2,0.1,0.4,0.1,0.5,0.1
		c0.6,0,1,0.3,1.4,0.8c0.3,0.5,0.4,1.1,0,1.5c-0.2,0.3-0.8,0.5-1.2,0.5c-0.6-0.1-1.1-0.3-1.7-0.5c-0.1,0-0.3,0-0.4,0
		c0,0,0,0.1-0.1,0.1c0.3,0.2,0.7,0.3,1,0.5c0.9,0.6,1.8,0.6,2.7,0c0.1-0.1,0.3-0.1,0.4,0c0.7,0.5,1.7,0.5,1.9,1.6
		c0.5-0.5,0.6-1.2,0.3-1.6c-0.8-1.3-1.6-2.5-2.3-3.8c-0.2-0.4-0.4-1-0.4-1.5c0.1-1.7,1.1-2.8,2.6-3.5c0.4-0.2,0.9-0.4,1.3-0.6
		c0.5-0.2,0.7-0.6,0.7-1.1c0-0.7-0.5-1-0.9-1.5c-0.2-0.2-0.3-0.5-0.4-0.8c1.2,0.1,2.4,1.7,2.4,3c0,0.3-0.1,0.7-0.3,0.9
		c-0.6,0.5-1.3,1.1-2.1,1.5c-1.1,0.6-1.8,1.4-2,2.6c0,0.2,0,0.5,0.1,0.6c0.5,0.9,1,1.8,1.6,2.6c0.6,0.7,0.9,1.4,1,2.3
		c0.1,1.5-0.3,2.5-1.6,3.3c-0.3,0.2-0.7,0.4-1,0.6c0.1,0.2,0.2,0.3,0.3,0.4c0.4,0.7,0.8,1.4,1.2,2.1c0.3,0.5-0.1,0.7-0.5,0.8
		c-0.2,0-0.4,0-0.5,0c-0.7,0-0.8,0.2-0.7,0.9c0,0.3,0,0.5,0,0.8c0,0.3,0.1,0.6,0.2,0.7c0.5,0.6,1.1,1,1.3,1.8c0.3,0.9,1.1,1.4,1.9,2
		c0.7,0.6,0.5,1.4-0.3,1.7c-0.3,0.1-0.5,0.3-0.8,0.5c-0.8,0.7-0.6,1.7,0.3,2.1c0.7,0.3,1.4,0.3,2.1-0.1c0.4-0.3,0.7-0.6,0.7-1.2
		c-0.1-0.5-0.1-1-0.3-1.5c-0.4-1.3,0.3-2.7,1.6-3c0.2,0,0.3,0.1,0.5,0.2c-0.1,0.1-0.2,0.4-0.3,0.4c-0.8,0.4-1,1.1-0.9,1.9
		c0,0.3,0.2,0.7,0.3,1c0.7,1.6-0.3,3.3-1.9,3.5c-0.8,0.1-1.6,0-2.4,0.2c-0.4,0.1-0.8,0.4-1,0.7c-0.2,0.3,0,0.6,0.3,0.8
		c0.2,0.1,0.3,0.3,0.3,0.5c0.1,0.8,0.2,1.6,0.2,2.4c0,0.7,0,1.4,0.4,1.9c0.2,0.3,0.6,0.6,1,0.7c0.2,0,0.5-0.4,0.7-0.7
		c0.1-0.1,0.2-0.3,0.3-0.4c1-1.1,2.4-1.4,3.8-1.5c0.8-0.1,1.7-0.1,2.4-0.4c1-0.3,1.6-1.2,2-2.1c0.2-0.5,0.4-0.9,0-1.4
		c-1-1.4-1.7-3-2.4-4.6c-0.5-1.2-0.5-2.5-0.7-3.8c0-0.2-0.2-0.5-0.4-0.5c-1.9-0.8-3.1-2.3-3.7-4.2c-0.5-1.5-0.4-2.9,0.6-4.2
		c0.7-0.9,1.3-1.7,2-2.6c0.6-0.9,0.6-1.6-0.1-2.4c-0.4-0.5-0.9-0.9-1.4-1.4c-1-1-1-2.3-0.8-3.6c0-0.1,0.4-0.2,0.5-0.3
		c0.1,0.2,0.2,0.4,0.2,0.6c0,0.4-0.1,0.9,0,1.3c0.2,0.5,0.7,0.9,1,1.3c0.6,0.6,1.3,1.2,1.8,1.9c0.8,1.1,0.9,2.2,0.1,3.2
		c-0.6,0.7-1.3,1.5-2.1,1.9c-0.9,0.5-1.4,2.2-1.2,3.1c0.3,1.2,1.1,1.9,2,2.6c0.9,0.7,1.4,0.5,2.3-0.3c0.7-0.6,1.4-1.2,2.2-1.6
		c0.7-0.4,1.6-0.5,2.3-0.9c1.7-0.8,2.2-2.9,0.9-4.3c-0.1-0.2-0.2-0.4-0.5-0.7c0.3,0,0.6-0.2,0.7-0.1c0.6,0.7,1.5,1.2,1.5,2.2
		c0,0.4,0,0.7,0,1.1c0.1,1.1-0.5,1.7-1.3,2.1c-0.8,0.4-1.6,0.7-2.4,1.1c-0.8,0.4-1.7,0.8-2.3,1.5c-0.7,0.8-0.9,2-0.8,3
		c0.2,2.1,0.6,4.1,1.6,6c0.9,1.7,1.9,3.3,4,3.8c0.7,0.2,1.3,0.4,2,0.2c1.3-0.4,2.7-0.7,4-0.8c1.1-0.1,2.1,0.2,3,0.8
		c0.2,0.1,0.2,0.4,0.3,0.6c-0.2,0-0.2,0-0.3,0c-1.9-0.9-3.7-0.8-5.5,0.2c-0.3,0.2-0.7,0.3-1.1,0.4c-1.7,0.3-3.3,0.2-4.7-0.8
		c-0.3-0.2-0.5-0.1-0.7,0.2c-0.3,0.5-0.5,1-0.8,1.4c-0.4,0.5-0.8,1.2-1.4,1.5c-0.8,0.3-1.8,0.4-2.8,0.4c-1.7,0-3,0.6-4.1,1.8
		c-0.3,0.3-0.7,0.6-1.1,0.9c-0.2,0.2-0.4,0.4-0.4,0.6c-0.2,0.8-0.6,1.2-1.4,1.2c-0.1,0-0.2,0-0.5,0c0,0.6,0,1.2,0.1,1.8
		c0.1,1,0.4,1.9,1.2,2.6c0.8,0.7,1.3,1.6,1.6,2.6c0.3,1,1,1.7,2.1,1.8c0.2,0,0.3,0.2,0.5,0.3c-0.2,0.2-0.3,0.5-0.5,0.5
		c-1.3,0.1-2.8-1.2-3-2.5c-0.1-0.4-0.3-0.8-0.6-1.1c-0.6-0.6-1.3-1.1-1.9-1.8c-0.3-0.4-0.5-0.9-0.7-1.4c-0.2-0.6-0.3-1.1-0.5-1.7
		c-0.1,0-0.2-0.1-0.2-0.1c-0.3,0.4-0.7,0.7-0.8,1.1c-0.2,0.5-0.2,1.1-0.3,1.6c-0.1,0.5-0.2,0.9-0.3,1.4c0,0.2,0,0.5,0.1,0.7
		c0.1,0.2,0.3,0.3,0.5,0.4c1,0.8,1,2.2,0,3c-0.2,0.1-0.3,0.3-0.5,0.5C77,84.9,77,85,77.1,85c1.7,0.4,3.2,1,4.3,2.5
		c0.3,0.5,0.7,0.8,0.9,1.4c0.3,1,1.1,1.3,1.9,0.6c0.3-0.3,0.5-0.6,0.9-0.8c1.3-0.7,1.7-1.9,2-3.2c0.3-1,0-1.9-0.6-2.8
		c-0.3-0.4-0.6-0.9-0.8-1.4c-0.3-0.8-0.2-1.5,0.4-2.2c0.6-0.8,1.6-1.1,2.5-1.5c0.9-0.4,1.7-0.8,1.9-1.9c0.1-0.8,0.2-1.6,0.3-2.4
		c0.1-0.9,0.4-1.6,1-2.1c0.1-0.1,0.3-0.1,0.5-0.1c0,0.2,0,0.4-0.1,0.5c-0.8,0.8-0.6,1.7-0.2,2.5c0.4,0.8,0.3,1.5-0.1,2.3
		c-0.6,1.3-1.8,1.9-3.2,2.1c-0.7,0.1-1.4,0.3-1.7,1c-0.5,0.9-0.2,1.7,0.4,2.5c1,1.2,1.7,2.5,1.5,4.2c0,0.2,0.2,0.5,0.4,0.5
		c0.8,0,1.7,0.2,2.5-0.1c1.1-0.4,1.4-1.4,1.5-2.5c0-0.4-0.1-0.9,0-1.3c0.5-1.3,1.1-2.5,2.4-3.1c0.6-0.3,0.9-0.8,0.9-1.4
		c0-0.6-0.2-1.1-0.2-1.7c-0.1-0.8-0.1-1.6,0.3-2.4c0.7-1.4,2.1-1.8,3.5-2.2c1.2-0.4,2.3-0.8,2.9-2c0.5-1,1.3-1.7,2.3-2.1
		c0.4-0.2,0.8-0.4,1.2-0.7c0.5-0.4,1-0.9,1.6-1.5c-0.3,1-0.4,1.9-1.3,2.5c-0.5,0.3-1.1,0.6-1,1.4c0.1,0.8,0.6,1.2,1.3,1.4
		c1.1,0.3,2.3,0.3,3.3-0.2c1.2-0.6,2.5-0.7,3.8-0.3c0.5,0.1,0.9,0.3,1.4,0.3c1.6,0,2.3-0.9,1.9-2.4c-0.2-0.9-0.4-1.8-0.6-2.7
		c-0.1-0.7,0.2-0.9,0.6-0.9c0,0.5,0,1.1,0.2,1.6c0.3,0.8,0.7,1.6,1,2.4c0.5,1.4,0.1,2.4-1.1,3.2c-1.2,0.8-2.7,0.8-3.9-0.1
		c-0.5-0.4-1.4-0.6-1.9-0.2c-1.9,1.3-3.8,1-5.8,0.3c-0.3-0.1-0.6-0.4-0.8-0.7c-0.5-0.7-1-0.8-1.5,0c-0.6,0.8-1.2,1.6-2.2,2
		c-0.6,0.3-1.2,0.5-1.7,0.7c-0.7,0.3-1.1,0.9-1.5,1.5c-0.5,0.9-0.5,1.9-0.6,2.8c-0.1,1.4-0.9,2.3-2,2.9c-0.9,0.5-1.3,1.2-1.3,2.2
		c0,0.5,0.1,1,0.2,1.5c0.2,0.9,0.2,1.9-0.6,2.5c-0.6,0.5-1.3,0.8-2,1c-0.9,0.2-1.9,0.3-2.9,0.4c-0.9,0.1-1.8,0.5-2.5,1
		c-0.6,0.5-1.2,1.1-1.9,1.5c-0.7,0.4-1.5,0.4-2.3,0c-0.9-0.5-1.5-1.3-1.9-2.1c-0.2-0.5-0.5-1-0.8-1.3c-1.4-1.4-3.1-1.8-5.1-1.4
		c-1.1,0.2-1.2,1.1-1.8,1.8c-0.2,0.2,0,0.8,0.2,1.1c0.1,0.3,0.3,0.5,0.4,0.7c0.1,0.1,0.1,0.3,0.1,0.5c-0.4,1-0.8,1.2-1.8,1
		c-0.2,0-0.4,0-0.5,0.1c-0.3,0.5-0.6,0.9-1.2,1.1c-0.1,0-0.1,0.3-0.2,0.4c-0.1,0.2-0.1,0.4-0.2,0.6c-0.3,0.7-0.6,1.3-0.4,2
		c0.6,2,2,3.3,4.1,3.6c1.7,0.2,2.9,0.9,3.6,2.6c0.3,0.8,0.8,1.7,2,1.5c0.6-0.1,0.9,0.2,1,0.9c-0.5,0-0.9,0-1.4,0
		c-1.8-0.2-2.6-1.2-3.1-2.8c-0.3-0.9-0.8-1.3-1.7-1.4c-1,0-2.1,0.4-3.1-0.1c-0.4-0.2-0.7-0.3-1.1-0.5c-0.4,1.1-1,1.3-2.1,0.8
		c-0.1-0.1-0.3-0.1-0.5-0.1c-0.6,0-1.1-0.2-1.4-0.7c-0.2-0.4-0.5-0.4-0.9-0.2c-0.2,0.1-0.4,0.2-0.6,0.4c-0.1,0.1-0.2,0.3-0.2,0.4
		c0.1,0.8,0.3,1.6,0.4,2.3c0.1,0.4,0.3,0.6,0.7,0.7c0.7,0.2,1.4,0.4,2.2,0.6c0.8,0.2,1.7,1.1,1.3,2.2c-0.2,0.4-0.3,0.9-0.3,1.4
		c-0.1,0.9-0.6,1.5-1.4,1.9c-0.8,0.3-1.5,0.4-2.2-0.2c-0.3-0.2-0.6-0.5-0.9-0.8c-0.2-0.1-0.4-0.2-0.6-0.2c-1.2,0.2-1.7,1-1.3,2.2
		c0.1,0.4,0.4,0.6,0.8,0.6c1.4,0.1,2.9,0.2,4.3,0.4c0.3,0,0.7,0.3,0.8,0.6c0.6,1.4,0.4,2.8-0.3,4.1c-0.6,1.2-1.8,1.7-3.1,1.2
		c-1-0.4-2-0.6-3-0.8c-0.2,0-0.4,0.1-0.5,0.2c-0.1,0.1-0.1,0.4,0,0.6c0.1,0.2,0.3,0.4,0.5,0.4c0.9,0.2,1.8,0.2,2.7,0.4
		c0.9,0.1,1.9,0.3,2.8,0.5c0.3,0.1,0.7,0.4,0.9,0.7c0.3,0.5,0.6,0.5,1.1,0.3c1-0.5,1.9-2,1.8-2.9c-0.1-1.1-0.2-2.3-0.1-3.5
		c0-1.2,0.4-2.4,1.4-3.3c0.3-0.3,0.6-0.6,1-0.9c-1.4-0.7-1.8-1.8-1.8-3.2c0-0.8-0.3-1.4-1.2-1.6c-0.1,0-0.2-0.3-0.3-0.4
		c0.2,0,0.4-0.2,0.6-0.1c1.3,0.4,1.9,1.8,2.1,3c0.1,0.6,0.7,1.5,1.2,1.7c0.2,0.1,0.4,0.1,0.5,0c1.6-0.6,3.2-0.9,4.9-0.6
		c0.8,0.1,1.1-0.1,1.5-0.8c0.8-1.4,1.7-2.5,3.5-2.5c0.8,0,1.7-0.9,1.9-1.7c0.1-0.2,0.4-0.4,0.6-0.6c0.1,0.3,0.3,0.6,0.2,0.8
		c-0.2,0.5-0.5,1-0.8,1.5c-0.5,0.7-1.2,1.1-2.1,1.1c-0.9,0-1.4,0.6-1.6,1.5c-0.1,0.9-0.4,1.7-1.4,2c-0.6,0.2-1.3,0.2-2,0.3
		c-1,0.1-2-0.1-2.9,0.2c-0.9,0.3-1.7,0.9-2.6,1.3c-0.6,0.3-0.9,0.9-1,1.5c-0.2,0.6-0.3,1.1-0.4,1.7c-0.1,1.2-0.2,2.4-0.2,3.5
		c1.2,0.2,2.3,0.4,3.4,0.7c1.4,0.4,2.8,0.8,3.8,1.8c1.4,1.4,1.1,3.2-0.7,3.7c-0.3,0.1-0.7,0.3-1,0.4c-1.1,0.5-1.7,1.6-2.4,2.5
		c-0.5,0.6-0.7,1.3-0.6,2.1c0,0.4,0.1,0.8,0.1,1.1c0.1,1.1,0.5,1.9,1.4,2.5c1,0.6,1.9,1.2,2.9,1.9c0.8,0.5,1.3,1.2,1.7,2.1
		c0.2,0.5,0.1,1.1-0.2,1.5c-0.3-1.2-1-2.2-2-2.8c-1.8-1-3.4-2.1-4.5-3.8c-0.4-0.7-0.9-1.4-1.1-2.1c-0.3-1.6,0.2-3.1,1.3-4.2
		c1.1-1.2,2.5-1.9,3.9-2.6c0.2-0.1,0.5-0.3,0.5-0.4c0-0.2-0.2-0.4-0.4-0.6c-0.1-0.1-0.2-0.1-0.4-0.2c-2.2-0.8-4.5-1-6.8-0.7
		c-0.1,0-0.2,0.1-0.3,0.1c-0.4,0.3-0.9,0.5-1.3,0.9c-0.4,0.3-0.8,0.6-0.9,1c-0.1,0.4-0.1,0.8-0.6,1c-0.4,0.1-0.8,0.4-1.1,0.4
		c-0.8,0-1.7-0.1-2.5-0.1c-0.4,0-0.7,0.2-1.1,0.3c0.1,0.4,0.2,0.9,0.4,1.3c0.1,0.1,0.4,0.1,0.6,0.2c0.8,0.2,1.6,0.4,2.4,0.7
		c0.5,0.2,1,0.5,1.5,0.8c1.4,0.7,2.6,1.6,1.8,3.5c-0.1,0.3-0.2,0.7-0.3,0.9c0.4,0.4,0.9,0.6,1,1c0.5,1,1.3,1.8,1.3,3
		c0,0.8,0.2,1.8-0.1,2.5c-0.3,0.7-0.6,1.4-0.3,2.1c0,0,0,0,0,0.1c-0.1,0.7-0.2,1.3-0.4,2c-0.4,1.1-0.3,2.3-0.9,3.4
		c-0.1,0.1,0,0.4,0.1,0.5c0.6,1,1.3,1.9,1.9,2.9c1,1.6,2.1,3.2,3.1,4.9c1.1,1.9,2.6,3.3,4.6,4.1c1.9,0.8,3.9,1.3,6,1.2
		c0.2,0,0.3,0,0.5,0c1.7,0.2,3.3-0.3,4.7-1.2c0.2-0.1,0.5-0.5,0.5-0.7c0-0.2-0.4-0.4-0.6-0.5c-1.1-0.5-2.1-0.1-3,0.5
		c-1.6,1.2-3.2,0.7-4.8,0.1c-0.1,0-0.2-0.2-0.2-0.3c0.1-0.1,0.2-0.2,0.4-0.3c0.1,0,0.3,0,0.4,0.1c1.1,0.2,2.2,0.5,3.2-0.2
		c0.6-0.4,1.2-0.8,1.8-1.1c1.2-0.6,2.5-0.7,3.8-0.8c0.8,0,1.7,0,2.5,0c1.7,0,3.1-1,4.5-1.6c1.2-0.5,2.2-1.2,3.3-1.8
		c1.6-0.8,3.1-1.8,4.1-3.3c1.1-1.5,2.6-2.5,4.1-3.4c0.8-0.5,1.6-0.8,2.3-1.4c1.2-0.9,2.2-1.9,2.8-3.3c0.4-0.9,0.8-1.8,1.3-2.6
		c0.7-1,1.6-1.9,2.4-2.9c0.3-0.4,0.5-0.9,0.8-1.5c-1,0.3-1.8,0.7-2.6,0.9c-1.4,0.3-2.3,1.1-3,2.3c-0.3,0.6-0.8,1.2-1.4,1.5
		c-1.8,1-3.7,1.4-5.7,0.9c-1.5-0.3-3.6,0.4-4.5,1.7c-0.4,0.5-0.7,1.1-0.9,1.7c-0.4,1.4-0.8,2.7-1.5,4c-0.7,1.4-1.8,2.2-3.3,2.3
		c-0.6,0-1.2,0-1.7,0.1c-1,0.1-1.6,0.9-2.1,1.7c-0.9,1.5-2.3,2.2-4.1,1.9c-0.4,0-0.8,0-1.2-0.1c-1.7-0.4-2.9,0.3-4.2,1.3
		c-0.8,0.6-1.4,1.3-2.4,1.5c-1.9,0.4-3.6-0.1-5.1-1.3c-0.8-0.7-1.1-1.9-0.7-2.6c0.2,0.2,0.4,0.4,0.5,0.6c0.2,0.8,0.8,1.3,1.5,1.7
		c1.3,0.7,2.7,0.9,4,0.1c1.4-0.8,2.6-1.9,4.2-2.1c1-0.1,2-0.3,3-0.2c1.4,0.1,2.8-0.4,3.6-1.6c0.3-0.4,0.6-0.9,1.1-1.1
		c1.1-0.5,2.3-0.8,3.5-1.2c1.1-0.4,2.3-0.7,2.7-2c0.4-1.4,0.8-2.9,1.2-4.3c-0.7-0.2-1.4-0.4-2.2-0.7c-0.1,0.8-0.3,1.7-0.4,2.5
		c0,0.3-0.1,0.5-0.2,0.8c-0.7,1.4-2,2-3.5,1.7c-1.4-0.3-2.5,0.2-3.4,1.3c-0.9,1.1-1.8,2.1-3.2,2.3c-0.9,0.1-1.9,0.3-2.8-0.2
		c-0.9-0.6-1.8-1.2-2.7-1.8c-0.6-0.3-1.2-0.5-1.9-0.2c-0.5,0.2-1,0.4-1.5,0.6c-1.6,0.7-3.2,0.8-4.8,0.1c-1.5-0.7-2.3-1.9-1.3-3.5
		c0.1-0.2,0.5-0.3,0.7-0.4c0,0.3,0.1,0.5,0.1,0.8c0,0.3-0.1,0.6,0,0.8c0.4,0.9,1.2,1.2,2.1,1.3c1.2,0.1,2.4-0.2,3.5-0.7
		c1.9-0.8,3.1-0.6,4.6,0.9c0.4,0.4,0.9,0.7,1.5,0.7c0.9,0.1,1.8,0.3,2.6,0.1c1.2-0.3,2.2-1,3-2c0.9-1.2,2.2-1.4,3.6-1.4
		c2.3,0.1,3.2-1.8,3.4-3.7c-0.3-0.1-0.6-0.2-0.9-0.4c-1.2-0.5-1.7-1.6-2.2-2.7c-0.7-1.7-1.5-3.2-2.9-4.4c-0.2-0.2-0.4-0.4-0.5-0.7
		c-0.1-0.5-0.4-0.4-0.8-0.4c-0.5,0-1,0-1.5-0.1c-0.5-0.1-0.8-0.1-1.2,0.2c-0.8,0.7-1.7,1.2-2.8,1.5c-1.7,0.5-2.9-0.1-3.5-1.7
		c-0.1-0.2,0-0.6,0.1-0.7c0.4-0.2,0.4,0.2,0.5,0.4c0.3,0.6,0.6,1.1,1.5,1.1c0.9,0,1.7-0.3,2.4-0.8c0.9-0.7,1.8-1.2,3-1.2
		c1.2,0,1.8-0.6,2.1-1.7c0.4-1.1,0.6-2.2,1.1-3.2c0.5-1.1,1.2-2.2,1.8-3.3c-0.2-0.5-0.4-1-0.7-1.5c-0.1-0.1-0.2-0.3-0.3-0.3
		c-1.5,0-2.9-0.1-4.4,0.4c-1.4,0.5-2.9,0.4-4.2-0.7c-0.5-0.4-1-0.6-1.6-0.5c-0.6,0.2-1.1,0.5-1.7,0.7c-0.2,0.1-0.3,0-0.5,0.1
		c0-0.1-0.1-0.3,0-0.4c0.3-0.4,0.6-0.8,0.9-1c1.1-0.7,2.2-0.6,3.3,0c0.9,0.5,1.9,0.9,3,0.8c1.7-0.1,2.8-1,3.9-2.2
		c-1.7-0.4-3-1.4-4-2.9c-0.6-0.9-1.4-1.7-2.5-1.8c-1-0.1-2-0.1-3,0.4c-0.6,0.3-1.2,0.5-1.8,0.6c-1,0.3-2,0.3-2.9-0.3
		c-0.1-0.1-0.2-0.2-0.3-0.3c0.1-0.1,0.3-0.2,0.4-0.2c0.1,0,0.3,0.1,0.4,0.1c0.5,0.1,1.1,0.2,1.6,0.1c0.9-0.2,1.8-0.5,2.7-0.8
		c1.4-0.4,2.8-0.8,4.2,0.2c0.5,0.4,1.1,0.7,1.6,1c1.6,0.8,3.3,1.1,4.9,0.2c0.2-0.1,0.4-0.3,0.4-0.4c0.5-1.1,1-2.1,1.8-2.9
		c2.1-2.3,4.5-4.2,7.7-4.7c1.4-0.2,2.7-0.3,3.9,0.7c0.9,0.8,1.7,1.6,2.6,2.4c0.8,0.7,1.4,1.5,1.9,2.4c0.5,0.9,1,1.7,1.5,2.5
		c0.3,0.6,1,0.8,1.6,0.4c0.7-0.5,1.4-0.5,2.1-0.5c0.7,0,1.3,0.2,1.8,0.7c0.1,0.1,0.1,0.4,0.2,0.5c-0.2,0-0.3,0.1-0.5,0.1
		c-0.2-0.1-0.5-0.2-0.7-0.3c-0.6-0.3-1.4-0.3-1.7,0.1c-0.8,1.3-2,1.8-3.4,1.7c-1.4,0-1.4,0.6-1.8,1.5c-0.3,0.8-0.7,1.6-1.1,2.4
		c-0.2,0.5-0.7,0.7-1.2,0.6c-0.3-0.1-0.5-0.3-0.2-0.5c0.5-0.4,0.6-0.9,0.7-1.5c0.3-1.7,0.9-3.3,2.7-3.9c0.1,0,0.3-0.4,0.2-0.5
		c-0.2-0.5-0.4-1.1-0.8-1.6c-0.7-0.9-1.5-1.8-2.3-2.7c-0.2,0.2-0.4,0.4-0.6,0.6c-1.3,1.1-2.6,2-4.4,2.1c-1.2,0-2.1,0.7-2.6,1.6
		c-0.4,0.6-0.4,1.4-0.6,2c-0.1,0.2-0.2,0.4-0.3,0.6c-0.1-0.2-0.4-0.4-0.4-0.7c-0.1-0.7,0-1.4,0.3-2.1c0.9-1.7,2.2-2.9,4.1-3.3
		c0.8-0.2,1.5-0.4,2.1-1c0.6-0.5,1-1.2,0.8-1.9c-0.3-0.8-0.9-1.4-1.8-1.6c-1.6-0.4-3.1-0.1-4.4,0.9c-1.3,1-2.6,2.1-3.7,3.3
		c-0.8,0.9-1.3,2.2-1.9,3.3c-0.7,1.2-0.7,2.5-0.6,3.8c0,1,0.3,2,1,2.8c0.2,0.3,0.5,0.5,0.8,0.6c0.7,0.2,1.4,0.2,2.1,0.5
		c1,0.4,1.9,1,2.8,1.5c1.2,0.6,2.4,1,3.5-0.3c0.2-0.2,0.6-0.3,0.6-0.6c0.3-1,0.4-2.1-0.4-2.9c-0.5-0.5-1.1-0.8-1.7-1.3
		c-0.1-0.1-0.2-0.3-0.3-0.4c0.2-0.1,0.4-0.2,0.5-0.1c0.6,0.2,1.1,0.4,1.7,0.6c0.9,0.3,1.5,1,1.6,2
		C107.2,120.3,107.2,121.4,107.4,122.5z M46.4,111.4c0.1-0.5,0.2-0.8,0.3-1.2c0.1-0.5,0.4-1,1-1.1c0.3-0.1,0.7,0,1,0
		c1.3,0.1,2.6,0.2,3.8,0.2c-0.3,0-0.7-0.2-1-0.3c-0.6-0.2-1.2-0.4-1.8-0.3c-1.2,0.1-2.4-0.5-2.7-1.7c-0.2-0.9-0.7-1.5-1.4-1.9
		c-0.5-0.3-1-0.5-1.5-0.8c-0.2-0.2-0.5-0.4-0.7-0.6c-0.6-0.6-0.5-1.4-0.4-2.2c0.1-0.8,0.4-1.6-0.2-2.3c-0.3-0.3-0.5-0.7-0.8-1
		c-1.3-1.5-3.8-2.1-5.5,0c-0.5,0.7-1.3,1.2-2,1.7c-0.4,0.3-0.9,1-0.8,1.5c0.2,0.9,0.4,1.8,0.6,2.7c0.2,1,0.9,1.4,1.8,1.2
		c1.7-0.5,3.5,0.6,3.9,2.5c0.2,1.1,0.7,1.9,1.7,2.5c1.3,0.9,2.2,2.1,2.3,3.7c0.1,1.7-0.2,3.3-0.6,4.9c-0.3,1.4-0.4,2.8,0.3,4.2
		c0.4,0.7,0.4,1.6,0.1,2.4c-0.5,1.3-0.3,1.9,0.8,2.8c0.1,0.1,0.2,0.2,0.3,0.3c0.7,0.7,0.9,1.5,0.6,2.4c-0.2,0.8-0.8,1.3-1.7,1.5
		c-1.2,0.2-2.1,0.7-2.5,2c-0.2,0.6-0.4,1.3-0.6,1.9c-0.1,0.2-0.2,0.4-0.4,0.5c-1.5,1-3,1.8-4.9,1.3c-0.3-0.1-0.5,0-0.6,0.3
		c-0.3,0.6-0.5,1.2-0.8,1.8c-0.6,1.6-0.6,3,0.9,4.2c0.1,0.1,0.1,0.4,0.2,0.7c-2.7-1.1-3.2-3.5-1.9-5.7c0.5-0.8,0.8-1.5,0.8-2.5
		c0-0.2-0.1-0.5-0.2-0.6c-0.7-0.7-1.3-1.3-2.4-1.2c-0.3,0-0.7,0.1-0.7-0.4c0-0.4,0.4-0.5,0.7-0.5c0.5,0.1,1,0.1,1.5,0.3
		c1,0.3,2,0.7,2.2,1.9c0,0.1,0.2,0.3,0.3,0.3c1,0,2,0.2,2.8-0.4c1.1-0.7,2-1.7,2.5-2.9c0.5-1.4,1.5-2,2.9-2.2
		c0.7-0.1,1.2-0.7,0.9-1.4c-0.2-0.5-0.6-1-1-1.3c-0.8-0.6-1.2-1.4-0.9-2.4c0.4-1.6,0.4-3.1-1.3-4.1c-1.3,0.7-2.8,0.6-4.3,0.5
		c-1.2-0.1-2.2,0.2-2.5,1.7c-0.1,0.4-0.2,0.8-0.3,1.2c-0.1,0.2-0.3,0.4-0.4,0.5c-0.1-0.2-0.3-0.4-0.3-0.6c0-0.3,0.2-0.5,0.2-0.8
		c0.4-1.9,1.5-2.7,3.3-2.7c2,0,3.5-1,4.5-2.6c0.5-0.7,0.8-1.6,1.2-2.4c0.3-0.7,0.4-1.4,0.3-2.2c-0.1-0.5-0.2-1.1-0.4-1.6
		c-0.3-0.9-0.7-1.8-1.6-2.4c-0.8-0.5-1.6-1-2-1.9c-0.2-0.5-0.5-1.1-0.8-1.6c-0.5-0.8-1.4-1.2-1.9-0.8c-1,0.7-2,0.8-3.1,0.4
		c-1.2-0.4-2.3-1-3.7-0.6c-0.9,0.3-1.8,0.5-2.3,1.3c-0.5,1-0.9,2.1-1.2,3.2c-0.2,0.5-0.4,1.2-0.2,1.6c0.4,0.9,0.5,1.8,0.7,2.7
		c0.2,1.2,1.1,1.6,2.1,1c0.3-0.2,0.6-0.3,0.9-0.5c-0.1,0.4-0.2,0.8-0.5,0.9c-0.9,0.5-2.1,0.9-3.1-0.2c-0.3-0.4-0.7-0.8-0.9-1.3
		c-0.6-1.3-1.6-1.7-2.9-1.8c-0.6-0.1-1.2,0.1-1.7,0.2c-1,0.2-1.9,0.3-2.7-0.5c-0.4-0.5-0.7-1-1-1.6c-0.1-0.2,0-0.5,0-0.7
		c0,0,0.1,0,0.1-0.1c0.2,0.2,0.4,0.3,0.5,0.6c0.5,1.3,1.4,1.5,2.6,1c1.4-0.6,2.7-0.8,4.2-0.8c0.1-0.4,0.3-0.7,0.4-1.1
		c0.2-0.7,0.2-1.6,0.6-2.2c0.5-0.9,0.3-1.4-0.3-2.2c-0.7-0.8-1.4-1.2-2.4-1c-0.6,0.1-1.2,0.4-1.7,0.5c-0.7,0.2-1,0-1.4-0.6
		c-0.1-0.2-0.2-0.3-0.3-0.5c-0.3-0.4-0.6-0.5-1-0.1c-0.3,0.4-0.6,0.7-0.8,1.2c-0.2,0.6-0.7,0.9-1.3,1.1c-0.3,0.1-0.6,0.2-0.9,0.3
		c-0.2,0.1-0.3,0.2-0.4,0.3c-0.2,0.6-0.3,1.2-0.4,1.8c-0.2,1.7,0.5,3.3,1.1,4.9c0.6,1.5,1.9,2.4,3.2,3.3c0.7,0.5,1.5,1,2.2,1.5
		c1,0.8,1.2,2,1.5,3.1c0.2,0.7,0.3,1.5,0.9,2.1c0.2,0.2,0.4,0.3,0.7,0.1c1.1-0.5,2.2-1,3.4-1.2c1.4-0.3,2.1-1.2,2.4-2.5
		c0.1-0.5,0.3-1.1,0.6-1.6c0.4-0.8,0.8-1.5,1.3-2.3c0.1-0.1,0.1-0.2,0.1-0.3c0.2-0.6,0.3-1.2,0.5-1.8c0.1-0.4,0.2-0.7,0.2-1.1
		c0.1-1.1-0.4-2-0.9-2.8c-0.1-0.2-0.2-0.5-0.3-0.7c0.1,0,0.1-0.1,0.2-0.1c0.2,0.1,0.5,0.2,0.6,0.4c0.3,0.4,0.6,0.8,0.8,1.2
		c0.6,0.9,0.8,1.9,0.6,2.9c-0.1,0.6-0.3,1.2-0.4,1.8c-0.1,0.3,0.1,0.5,0.4,0.5c0.8,0,1.5,0,2.3,0c0.4,0,0.8-0.1,1-0.4
		c0.4-0.4,0.7-0.9,1-1.4c0.2-0.4,0.2-0.8,0.4-1.3c0.1-0.1,0.2-0.2,0.4-0.3c0.1,0.2,0.2,0.3,0.2,0.5c-0.1,1.1-0.5,2.2-1.3,3
		c-1,1.2-2.3,1.1-3.6,0.9c-0.9-0.1-1.6,0.2-2.1,0.9c-0.8,0.9-0.7,2.1-0.8,3.2c-0.1,1.3-0.9,2.3-2.2,2.6c-0.8,0.2-1.5,0.2-2.2,0.5
		c-1.1,0.4-2,1-2.5,2.2c-0.3,0.7-0.1,1.2,0.4,1.7c0.4,0.5,1,0.8,1.7,0.5c0.9-0.3,1.8-0.7,2.7-0.9c1.3-0.4,2.6-0.3,3.8,0.5
		c0.5,0.3,0.9,0.7,1.4,0.9c1,0.5,1.7,0.2,2.1-0.8c0.3-0.7,0.5-1.5,0.7-2.2c0.2-0.6,0.7-1.1,1.3-1.2c0.7-0.1,1.4,0,2,0.7
		c-0.1,0.1-0.2,0.1-0.3,0.1c-1.2-0.1-2.2,0.7-2.3,1.9c0,0.5-0.1,1.1-0.1,1.6c-0.1,1.1-1.2,2.1-2.2,2.1c-1.5,0.1-2.3-0.8-3.1-1.8
		c-0.6-0.7-1.3-1-2.2-0.8c-1,0.2-1.9,0.6-2.9,0.8c-0.5,0.1-1.1,0.3-1.7,0.2c-2.1-0.4-3.2-2.5-2.5-4.5c0.1-0.4,0.1-0.6-0.2-0.9
		c-0.7-0.6-1.2-1.2-1.4-2.1c-0.2-0.8-0.5-1.6-1.3-2.1c-1.1-0.7-2.1-1.5-3.1-2.3c-0.7-0.5-1.4-0.9-1.8-1.7c-0.2-0.5-0.4-1-0.6-1.5
		c-0.9-1.7-1-3.6-1-5.4c0-0.5,0.1-1.1,0.1-1.6c-0.4,0.5-0.7,1-1,1.5c-0.1,0.1-0.2,0.1-0.3,0.2c-0.1-0.1-0.1-0.2-0.2-0.3
		c-0.1-0.9,0.6-2.3,1.5-2.6c0.6-0.2,1.2-0.4,1.8-0.7c0.3-0.1,0.6-0.4,0.8-0.6c0.5-1,1-1.9,2-2.5c0.1,0,0.1-0.2,0.2-0.2
		c0.1-1.1,0.1-2.2-0.7-3.1c-0.6-0.7-1.3-1.3-1.9-1.9c-0.6-0.5-0.9-1.2-1-1.9c-0.2-1.2,0-2.3,0.2-3.5c0.2-1,0.2-1.9-0.7-2.7
		c-0.7-0.6-1.4-1.2-2.1-1.8c-0.1-0.1-0.2-0.1-0.2-0.2c0-0.1,0-0.3,0-0.4c0-0.1,0.3-0.2,0.3-0.1c0.8,0.3,1.7,0.5,2.2,1.1
		c1.4,1.3,2,3,1.6,4.9c-0.3,1.2-0.2,2.4,0.5,3.4c0.3,0.5,0.8,0.9,1.1,1.4c0.4,0.6,0.8,1.2,1.1,1.9c0.5,1.2,0.2,2.7,1,3.9
		c0.5,0.7,0.4,0.9,1.4,0.8c0.2,0,0.4-0.1,0.6-0.1c1-0.2,1.9-0.1,2.7,0.6c0.5,0.5,1,1.1,1.6,1.7c2.2-2,4.6-1.8,7.3-0.6
		c-0.1-1.1-0.2-2-0.4-3c-0.2-1.2-1.4-1.6-2-2.5c0,0-0.1,0-0.1,0c-0.8-0.2-1.6-0.4-2.3-0.6c-1.1-0.3-1.9-0.9-2.5-1.8
		c-0.2-0.4-0.5-0.7-0.7-0.9c-0.4,0.7-0.6,1.4-1.1,1.9c-0.5,0.5-1.1,0.9-1.7,1.3c-0.5,0.3-0.8,0.7-0.8,1.3c0,0.2,0,0.3,0,0.5
		c0,0.1-0.2,0.2-0.3,0.3c-0.1,0-0.3-0.1-0.3-0.2c-0.4-1.5,0-2.6,1.4-3.2c1.3-0.6,1.7-1.3,1.5-2.7c-0.2-1.2-0.1-2.3,0.4-3.4
		c0.3-0.6,0.7-1.1,1-1.6c0.5-0.9,0.6-1.8,0.6-2.8c0-0.7,0.1-1.4,0.2-2c0.1-0.4,0.1-0.6-0.2-0.9c-0.2-0.3-0.4-0.7-0.4-1.1
		c0-0.8-0.3-1.4-0.8-2c-0.3-0.4-0.6-0.8-1-1.2c-0.5-0.6-0.6-1.3-0.1-1.7c0.9,1.3,2.2,2.3,2.7,3.8c0.1,0.3,0.6,0.7,1,0.7
		c0.3,0,0.7-0.3,0.9-0.6c0.6-1,1.1-2.1,1.7-3.1c0.1-0.2,0.4-0.2,0.6-0.3c0,0.2,0.1,0.5,0,0.7c-0.4,1-0.8,2-1.3,2.9
		c-0.3,0.7-0.7,1.4-1.2,2c-0.5,0.5-0.9,1-1,1.7c-0.1,1-0.2,2-0.3,3c0,1.2-0.3,2.4-1.1,3.3c-0.4,0.4-0.4,0.9-0.1,1.3
		c0.4,0.6,0.7,1.3,1.2,1.8c0.9,1,1.9,1.9,3.3,2.2c0.8,0.1,1.7,0,2.5,0c1.5,0,2.6-0.7,3.5-1.9c0.7-1,1.8-1.3,3-1.2
		c0.8,0,1.5,0.3,2.4,0c1.2-0.5,1.9-1.4,2.4-2.4c0.1-0.2,0.1-0.4,0-0.5c-0.2-0.6-0.4-1.2-0.6-1.9c-0.1-0.2,0-0.5,0.1-0.7
		c0.2,0,0.5,0,0.6,0.1c0.3,0.5,0.7,1,0.8,1.5c0.2,0.5,0.3,0.8,0.8,1c1.1,0.3,2.1,0.8,2.8,1.6c0.6,0.7,1.5,0.6,2.2,0.4
		c0.5-0.1,1-0.3,1.2-0.9c0.2-0.5,0.5-1.1,0.7-1.6c-0.7-0.6-1.4-1.2-2.1-1.9c-0.4-0.4-0.7-1-1.2-1.4C49.1,88,48.1,87.9,47,88
		c-1.4,0.1-2.6-0.2-3.8-1c-0.9-0.6-1.9-0.9-3-0.7c-0.8,0.1-1.7,0.3-2.4,0.4c-0.1,0.8-0.3,1.5-0.4,2.2c0,0.2-0.2,0.3-0.2,0.5
		c-0.2,1.5-0.4,2.9-0.5,4.4c-0.1,2.3-2.7,4-4.6,3c-0.2-0.1-0.4-0.3-0.7-0.4c-0.5-0.2-1.1-0.3-1.7-0.5c-0.2-0.1-0.3-0.3-0.5-0.5
		c0.2-0.1,0.4-0.3,0.7-0.4c0.2-0.1,0.5,0,0.8,0.1c0.7,0.2,1.5,0.2,2,0.9c0.1,0.1,0.5,0.2,0.7,0.1c0.9-0.2,1.7-1.2,1.8-2.2
		c0-0.2,0.1-0.4,0.1-0.7c0.1-0.6,0.1-1.2,0.2-1.8c0.1-0.9,0.2-1.8,0.8-2.6c0.5-0.5,1-1.1,0.6-1.9c-0.2-0.4-0.5-0.8-0.8-1
		c-1.9-1.4-2.3-2.5-1.7-4.8c0.2-0.5,0.3-1.1,0.2-1.7c-0.2-1.3-0.6-2.5-1-3.7c-0.2-0.5-0.1-0.7,0.3-0.9c0.1,0.2,0.3,0.3,0.3,0.5
		c0.3,0.6,0.5,1.1,0.8,1.7c0.6,1.3,1,2.7,0.8,4.1c-0.3,1.4,0.3,2.3,1.2,3.1c0.5,0.5,1.2,0.7,1.9,0.5c0.8-0.2,1.6-0.3,2.4-0.4
		c-0.2-0.8-0.3-1.8-0.5-2.7c-0.1-0.6-0.4-1.1-0.7-1.6c-0.2-0.3-0.5-0.6-0.8-0.9c-0.7-0.7-0.9-1.5-0.5-2.6c0.2-0.7,0.2-1.6,0-2.4
		c-0.4-1.5-2.2-2.7-3.8-2.7c-0.5,0-0.9-0.2-1.1-0.7c-0.1-0.2-0.3-0.5-0.5-0.6c-0.7-0.4-1.5-0.9-2.3-1.1c-0.9-0.2-1.7-0.7-2.3-1.3
		c-0.7-0.7-0.9-2-0.5-2.7c0.7,0.2,0.7,0.2,0.6,0.8c-0.1,0.7,0.1,1.1,0.7,1.3c0.5,0.2,1,0.4,1.6,0.5c1.4,0.3,2.7,0.6,3.5,1.9
		c0.1,0.2,0.4,0.3,0.6,0.3c1.1,0,2,0.5,2.9,0.9c2.3,1.1,2.8,2.6,2.2,5c-0.3,1.4-0.3,2.6,0.6,3.7c0.1,0.1,0.1,0.2,0.2,0.2
		c0.6,0.9,1.2,1.8,1.3,3c0.2,2.1,1.7,3.3,4,3.7c-0.2-1.4,0.5-2.3,1.4-3.3c0.4-0.5,0.9-1,1.3-1.5c0.6-1,0.2-2.7-0.7-3.5
		c-1.1-1-2.3-1.8-2.9-3.2c-0.6-1.1-0.5-2.8,0.2-3.6c0.1-0.1,0.3-0.2,0.5-0.2c0.1,0.2,0.2,0.5,0.2,0.6c-0.6,1.5-0.1,3.1,1.1,4.1
		c0.8,0.6,1.6,1.3,2.4,2c1.2,1,1.4,3.4,0.5,4.6c-0.8,1-1.1,2.2-0.7,3.6c0.3,0.8,0.5,1.6,1.4,2.1c0.2,0.1,0.4,0.4,0.6,0.6
		c0.6,0.8,1.2,1.6,1.8,2.4c0.4,0.4,0.9,0.8,1.4,1.1c0.9,0.4,1.8,0.7,2.7,1c1,0.4,2,0.9,3,1.1c1.5,0.4,3-0.1,4.4-0.5
		c1-0.3,1.5-0.7,1.1-1.8c-0.1-0.2-0.2-0.4-0.4-0.4c-0.2,0-0.4,0.2-0.6,0.3C65,91.9,65,92.1,65,92.3c-0.6,1.3-1.2,1.9-3,1.4
		c-1.4-0.4-2.8-0.9-4.3-1.2c-1-0.2-1.8-1.6-1.9-2.4c-0.2-2,0.8-3.5,2.2-4.7c0.2-0.2,0.5-0.3,0.7-0.3c0.6,0,1.1,0.1,1.7,0.3
		c0.8,0.3,1.6,0.7,2.4,1c0.9,0.3,1.7,0.7,2.7,0.2c0.2-0.1,0.5,0,0.7,0c0.7,0,1.5,0.1,2.2,0.1c0.4,0,0.9-0.3,1.3-0.5
		c0.3-0.2,0.7-0.4,0.8-0.7c0.2-0.4,0.2-0.8,0.2-1.2c0-0.3-0.4-0.4-0.6-0.1c-0.3,0.3-0.5,0.7-0.7,1.1c-0.3,0.7-1.1,1.1-1.8,0.9
		c-1.3-0.5-2.7-0.6-4-0.5c-1.1,0.1-2.1,0-3.1-0.7c-0.4-0.3-0.7-0.7-0.6-1.3c0-0.7,0.3-1.2,0.6-1.7c0.2-0.4,0.4-0.8,0.5-1.2
		c0.2-0.4,0.3-0.8,0.5-1.2c0.4-0.8,1.4-1.2,2.2-0.9c0.2,0.1,0.4,0.1,0.5,0.1c-1.4-0.9-0.6-2.1-0.4-3.1c-0.6,0-1.6,0.4-1.8,1
		c-0.7,1.2-1.3,2.4-1.9,3.6c-0.5,1-1.5,1.2-2.3,0.5c-0.7-0.6-0.8-0.5-1.5,0c-0.5,0.4-0.8,0.9-0.7,1.6c0,0.5,0.1,1,0,1.5
		C55.2,85,54,85.6,52.7,86c-0.1,0-0.4-0.1-0.5-0.1c0.1-0.1,0.1-0.3,0.3-0.4c1.3-0.8,1.9-2,2.1-3.4c0.2-1.3,1-2,2-2.6
		c0.5-0.3,0.9-0.1,1.3,0.2c0.2,0.1,0.3,0.3,0.4,0.5c0.4,0.4,0.7,0.3,0.9-0.1c0.1-0.2,0.1-0.4,0.2-0.6c0.2-1.3,0.7-2.5,1.5-3.6
		c0.6-0.8,1.5-1.4,2.5-1.7c0.7-0.2,0.8-0.6,0.6-1.2c-0.2-0.8-0.5-1.6-0.6-2.4c-0.1-0.4,0-0.8,0-1.2c0-0.5-0.2-0.9-0.6-1.2
		c-0.8-0.6-1.7-0.6-2.6-0.4c-0.7,0.1-1.4,0.3-2,0.1c-1.3-0.4-2.3-1.3-2.6-2.7c-0.2-0.8-0.2-0.8,0.6-1.1c0.1,0.2,0.2,0.3,0.2,0.5
		c0.3,1.3,0.6,1.6,1.9,1.6c0.7,0,1.4-0.2,2.2-0.3c2.4-0.4,4.3,1.6,3.8,4c-0.2,1.1-0.3,1.3,1,2.4c0.8-0.6,0.8-0.6,1.8-0.4
		c0.4,0.1,0.7,0.2,1.1,0.2c1.2,0.2,2.4,0.3,3.5,0.6c1.1,0.2,2.1,0.2,3-0.7c0.3-0.3,0.7-0.7,1-1c-0.1-0.1-0.3-0.3-0.4-0.5
		c-0.5-0.6-1-0.6-1.6-0.2c-0.4,0.3-1,0.8-1.5,0.8c-1.2,0-2.5-0.1-3.7-0.3c-0.5-0.1-1.1-0.4-1.2-1.2c-0.3-1.5,0.2-2.8,0.7-4.1
		c0-0.1,0.1-0.1,0.2-0.1c0.4-0.2,0.8-0.4,1.2-0.4c1.4,0,2.8-0.4,4.1,0.2c0.5,0.2,0.9,0.5,1.3,0.8c0.2,0.1,0.5,0.4,0.6,0.3
		c0.2-0.1,0.4-0.4,0.5-0.6c0.1-0.5,0.3-1,0.7-1.4c0.2-0.2,0.2-0.5,0.3-0.8c-0.7,0.2-1.2,0.4-1.7,0.4c-1.4,0.2-2.9,0.3-4.3,0.5
		c-1.1,0.1-1.6-0.1-2-1.1c-0.1-0.2-0.1-0.3-0.1-0.5c-0.2-1.1,0.4-2.1,0.8-3c0.2-0.4,0.6-0.7,0.8-0.9c-0.4-0.5-0.8-1.1-1.2-1.6
		c-0.6-0.9-1.2-1.8-1.8-2.7c-0.5-0.7-1-0.8-1.8-0.4c-0.3,0.1-0.6,0.3-0.9,0.3c-0.7,0.1-1.5-0.3-1.7-1c0.3,0,0.5-0.1,0.7-0.1
		c0.8,0.3,1.3,0,1.9-0.4c0.2-0.2,0.5-0.4,0.8-0.5c1-0.1,2-0.2,2.6,0.8c-0.6-1.2-0.7-1.3-0.7-3.3c0-0.2,0-0.5-0.1-0.6
		c-1.5-1.5-1.7-2.5-1-4.3c-1.5-1.5-1.4-3.2-0.6-5c-1.5-0.5-2-2.2-1.3-4.3c-1-0.3-1.3-1.3-1.6-2.1c-0.1-0.4-0.2-0.8-0.5-1
		c-2-1.5-4-2.8-6.6-3c-2.1-0.2-3.7,0.5-5.3,1.6c-1.2,0.8-1.8,2.2-2.6,3.4c-0.6,1-0.9,2.1-1.5,3c-0.5,0.9-1,1.7-1.7,2.4
		c-0.7,0.6-1.6,0.9-2.3,1.4c-1.5,1.1-3.1,2.2-4.5,3.4c-0.7,0.6-1.4,1.3-1.6,2.3c-0.2,1.2-0.5,2.5-0.7,3.7c-0.2,1.1-0.8,2-1.7,2.7
		c-1,0.8-2.1,1.1-3.3,1.3c-1,0.2-2,0.3-2.7-0.3C28,53.7,27.5,52.8,27,52c-0.2-0.3-0.1-0.6-0.2-0.9c-0.1-0.3,0-0.4,0.4-0.5
		c0.7-0.1,0.8,0.3,0.8,0.8c0,0.6,0.3,1,0.8,1.3c0.7,0.6,1.5,0.8,2.3,0.9c1.8,0.1,3.2-0.6,3.7-2.5c0.1-0.4,0.2-0.9,0.3-1.3
		c0.4-1.7,0.5-3.4,1.6-4.9c0.8-1,1.4-2.2,2.3-3.1c1-1.1,1.8-2.2,1.4-3.8c-0.6-2.6,1.4-3.9,3.5-4.2c0.5-0.1,0.6,0.2,0.5,0.4
		c-0.8,0.3-1.5,0.5-2.1,0.8c-0.7,0.4-1.2,1-1.1,1.9c0.1,1,0.3,2,0.5,3.1c0.3-0.1,0.6-0.2,0.9-0.3c0.9-0.6,1.8-1.2,2.6-1.8
		c0.9-0.7,1.6-1.6,2.1-2.7c0.5-1,1-2,1.6-3c0.7-1.1,1.4-2.2,2.6-2.9c0.4-0.2,0.7-0.5,1.1-0.7c-1-0.8-1.5-1.8-1.8-3
		c-0.3-1.1-0.2-2.2,0.3-3.2c0.5-1,1.3-1.9,1.8-2.9c0.5-0.9,1-1.9,1.3-2.9c0.4-1.1-0.1-1.8-1.2-2c-0.9-0.2-1.7-0.5-2.1-1.4
		c-0.2-0.5-0.4-1.1-0.6-1.7c-0.3-1.2,0.3-2.4,1.6-2.9c0,0.3,0,0.5-0.1,0.7c-0.1,0.3-0.3,0.6-0.2,0.9c0.1,0.7,0.3,1.5,0.6,2.1
		c0.4,0.9,1.2,1.3,2.2,1c1-0.3,2-0.8,2.9-1.4c1.9-1.1,3.8-1.2,5.8-0.2c0.8,0.4,1.6,0.9,2.5,1.4c0-0.1,0-0.2,0-0.2
		c0.8-1,0.4-2.1-0.1-3c-0.7-1.3-1.9-2-3.2-2.7c-1.3-0.6-2.6-0.8-4-0.9c-1.7-0.2-3.4,0.2-4.9,1c-0.6,0.3-1.2,0.6-1.9,0.7
		c-1.7,0.4-3.5,0.8-5.2,1.1c-1.5,0.3-2.9,0.7-4.2,1.6c0.9,0.9,2.2,1.5,2.5,2.8c0.3,1.2,0.5,2.4-0.1,3.6c-0.1-0.4-0.2-0.9-0.2-1.3
		c-0.1-1-0.5-1.9-1.3-2.5c-1.5-1.2-3.7-1.3-5.2-0.2c-1.1,0.8-2.1,1.8-2.9,3c-0.9,1.3-1.9,2.5-2.8,3.8c-0.5,0.6-0.9,1.2-1.3,1.9
		c-0.6,0.9-1.2,1.8-1.8,2.7c-0.6,0.9-1,1.9-1.7,2.7c-0.9,1.1-1.8,2.3-2.9,3.3c-2,2-3.8,4.1-5,6.6c-0.5,1.1-1.1,2.3-1.4,3.5
		c-0.4,1.6-0.5,3.2-0.8,4.8c-0.4,1.9-0.2,3.7,0.6,5.4c0.7,1.5,1.5,3,2.4,4.4c0.2,0.4,0.1,0.6-0.3,0.8c-1.5-1.5-2.7-3.1-3.6-4.9
		c-0.4,0.6-0.9,1.3-1.3,2c-0.5,0.8-1,1.6-1.3,2.4c-0.3,0.8-0.3,1.7-0.4,2.6c-0.1,1.4-0.1,2.8-0.3,4.2c0,0.5-0.3,1-0.4,1.5
		c1-0.5,1.9-1,2.4-2c0.3-0.8,0.6-1.5,1-2.2c0.7-1.2,2-1.7,3.1-2.2c1.2-0.5,2.5-0.5,3.7-0.5c0.8,0,0.9,0,0.7-0.9
		c-0.3-1-0.6-1.9-0.9-2.8c-0.2-0.7-0.5-1.4-0.7-2.1c-0.1-0.6-0.1-1.2,0-1.9c0.1-1.6,0.7-2.9,2-3.9c1-0.7,2-1.5,3-2.2
		c0.9-0.6,1.7-1.1,2.7-1.6c1.2-0.7,2.3-1.4,3-2.6c0.8-1.4,1.5-2.8,2.2-4.2c0.5-1,1.4-1.6,2.3-2.1c1-0.6,2.1-1,3.2-1.5
		c1.3-0.6,1.6-1.1,1.4-2.5c-0.1-1.2-0.3-2.3-0.4-3.4c-0.1-0.5-0.1-1.1-0.1-1.7c-1.5,0.8-2.8,1.6-3.6,3c-0.6,1.2-1.1,2.6-1.7,3.9
		c-0.5,1.1-1.8,2.2-3.2,1.5c-0.2-0.1-0.4-0.2-0.6-0.3c-0.7-0.3-1.4-0.6-2.2,0c-0.7,0.5-0.8,1.1-0.7,2c0.2,1.4-0.2,2.8-1.6,3.6
		c-0.5,0.3-1,0.8-1.5,1.3c-0.2,0.2-0.3,0.4-0.3,0.6c0,0.6,0,1.2,0,1.8c-0.1,1.1-0.5,2-1.5,2.5c-0.7,0.4-1.5,0.6-2.2,0.9
		c-0.1,0-0.4-0.1-0.4-0.2c-0.1-0.1,0-0.4,0.1-0.4c0.4-0.2,0.8-0.4,1.2-0.6c1-0.5,1.4-1.2,1.3-2.2c-0.3-1.9,0.3-3.4,2.3-4.2
		c0.8-0.3,1.5-0.6,1.6-1.5c0.1-0.8,0.1-1.6,0-2.3c-0.3-1.5,0.4-2.8,1.8-3.4c1-0.5,2-0.2,2.9,0.3c1.1,0.6,1.5,0.5,2.1-0.6
		c0,0-0.1,0-0.1,0c-2,0.1-3.4-2.2-2.8-4c0.6-1.7,1.8-2.6,3.4-3.1c0.3-0.1,0.8-0.2,1,0.3c-1.1,0.1-1.9,0.7-2.6,1.5
		c-1.2,1.3-1.1,3.4,0.2,4.4c0.7,0.5,1.9,0.3,2.1-0.4c0.3-0.8,0.5-1.7,0.9-2.5c0.7-1.5,1.5-2.8,3-3.6c0.7-0.4,1.5-0.8,2.1-1.4
		c0.6-0.7,1.2-1.4,2-2c1.9-1.6,4.1-2.3,6.5-1.9c0.1,0,0.2,0.2,0.4,0.3c-0.1,0.1-0.2,0.2-0.4,0.2c-2.6,0.2-4.4,1.7-5.8,3.7
		c-1.2,1.5-1.6,3.4-1.7,5.4c0,1.4,0.1,2.8-0.3,4.2c-0.4,1.3-1.4,2.3-2.5,2.7c-2.6,0.9-4.5,2.4-5.4,5.1c-0.3,1-0.7,2-1.6,2.6
		c-1.6,1.1-3.2,2.1-4.8,3.2c-1.3,0.8-2.2,1.9-2.9,3.2c-1.1,2-1.3,4.2-1.4,6.4c0,0.5,0.1,1.1,0.2,1.6c0.1,0.6,0.2,1.3,0.3,1.9
		c0,0.2,0.1,0.5,0.3,0.5c1.5,0.9,2.5,2.3,3.1,4c0.2-0.1,0.4-0.2,0.6-0.3c2.3-1.4,4.7-1.4,7.2-1c0.9,0.1,1.6,0,2.4-0.3
		c1-0.3,1.6-1.3,2.4-2c0.5-0.4,0.7-1,0.8-1.6c0-0.5,0.4-0.7,0.8-0.7c0.1,1.2,0,2.3-0.8,3.2c-0.6,0.6-1.1,1.2-1.8,1.7
		c-0.6,0.4-1.3,0.9-2,1c-1.7,0.1-3.4-0.1-5.1,0c-0.6,0-1.3,0.2-1.8,0.5c-1.5,0.9-3,1.7-4.8,2c-1.5,0.2-2.5,1-3,2.4
		C22.7,67,22.3,67.4,22,68c0-0.3-0.1-0.4-0.1-0.4c0.2-0.7,0.4-1.4,0.6-2c0.4-0.9,1-1.6,2-2c0.9-0.4,1.8-0.9,2.8-1.4
		c-0.9-0.9-1.5-1.7-2.3-2.4c-0.5-0.4-1.2-0.8-1.8-1c-0.7-0.2-1.5-0.3-2.3-0.3c-1.6,0-3.1,0.6-4.2,1.9c-0.5,0.6-0.7,1.5-1,2.3
		c-0.5,1.3-1.2,2.3-2.4,2.9c-0.8,0.5-1.4,1.2-1.8,2.1c-0.5,0.9-0.6,1.9-0.8,3c-0.2,1.3-0.1,2.1,0.4,2.8c0.8-1.1,0.3-2.5,0.8-3.7
		c0.6,0.4,0.7,0.9,0.8,1.5c0.2,1.6-0.4,3-1,4.4c-0.7,1.4-0.9,2.9-0.6,4.5c0.3,1.7,0.4,3.3,0.1,5c-0.4,1.6-0.7,3.1-1.2,4.7
		C9.7,90.8,9.6,91.8,10,93c0.1,0.2,0.2,0.5,0.2,0.7c0.2,1,0.7,1.9,1.5,2.7c0.8,0.7,1.5,1.5,2.1,2.4c0.5,0.7,0.8,1.6,0.7,2.6
		c0,0.2-0.3,0.3-0.5,0.5c-0.1-0.2-0.2-0.3-0.3-0.5c0-0.3,0.1-0.6,0-0.8c-0.6-1.5-1.4-2.8-2.9-3.5c-0.6-0.3-1.2-0.7-1.8-1.1
		c0.2,1.1,0.4,2.3,0.7,3.5c0.4,1.4,0.9,2.8,1.3,4.2c0.6,2,0.4,3.9,0.2,5.9c-0.1,0.8-0.3,1.6-0.3,2.5c0.1,1.5,0.5,2.8,1.6,3.8
		c0.7,0.7,1.2,1.5,1.4,2.5c0.2,1.1,0.6,2.1,1.4,3c0.2,0.3,0.6,0.5,0.7,0.8c0.3,0.8,0.5,1.5,0.7,2.3c0.2,0.6,0.3,1.2,0.6,1.8
		c0.1,0.3,0.5,0.6,0.6,0.9c0.1,0.2,0,0.5,0,0.8c-0.2-0.1-0.5-0.2-0.7-0.3c-1-1-1.1-2.3-1.5-3.5c-0.3-0.7-0.8-1.2-1.7-1.6
		c0.3,1.3,0.2,2.5,1,3.4c1,1.4,1.8,2.8,2.1,4.5c0.4,2.3,1.3,4.3,2.5,6.2c1,1.7,2.4,3.2,3.6,4.8c1.4,1.8,3.2,3.1,5,4.4
		c1.5,1,2.4,2.6,3.6,3.9c0.5,0.6,1.1,1.2,1.7,1.6c0.6,0.4,1.4,0.5,2,0.8c0.9,0.4,1.9,0.9,2.7,1.4c1.2,0.8,2.4,1.7,3.6,2.5
		c1.5,1,3.2,1.4,5,1.7c1.2,0.2,2.4,0.3,3.6,0.5c0,0,0-0.1,0-0.1c-0.9-1-2-1.4-3.3-1.5c-0.6,0-1.2,0-1.8-0.1c-0.1,0-0.2-0.2-0.4-0.4
		c0.1-0.1,0.3-0.2,0.4-0.3c0.7,0,1.4-0.1,2.2,0c1.1,0.1,2.1,0.3,3.1,0.5c0.3,0,0.5,0.1,0.7,0.3c0.8,0.6,1.7,0.9,2.6,1.2
		c1.7,0.7,3.3,0.4,4.6-0.6c1.5-1.1,2.8-2.4,4.2-3.6c0,0-0.1-0.1-0.1-0.1c-0.4,0.1-0.8,0.3-1.2,0.4c-0.3,0.1-0.6,0.2-0.7,0.4
		c-0.6,1.1-1.5,1.6-2.7,1.8c-1.1,0.2-2.1,0.3-3.1-0.1c-1-0.4-1.8-0.9-2.1-2.1c-0.2-0.8-0.6-1.6-1.5-2c-1-0.5-1.9-0.1-2.8,0.3
		c-0.9,0.4-1.7,1-2.6,1.6c-1,0.6-1.8,0.5-2.6-0.2c-1.1-1.1-1.6-2.5-1.9-4c-0.2-1.2-0.9-2-2-2.5c-0.9-0.4-1.8-0.8-2.2-1.7
		c-0.6-1.4-0.8-2.9-0.3-4.4c0.8,0.1,0.6,0.7,0.6,1.2c-0.1,1,0.4,1.7,1.1,2.3c0.7,0.6,1.4,1.1,2,1.8c0.8,1,1.4,2.1,1.6,3.4
		c0.2,1.1,0.8,1.9,1.9,2.3c0.6,0.2,1.2,0.4,1.9,0.5c0.2,0,0.4,0,0.6-0.1c0.6-0.3,1.1-0.6,1.7-0.9c2.1-1.1,4.9,0.1,5.5,2.2
		c0.1,0.3,0.4,0.6,0.7,0.8c1.2,0.6,2.4,0.3,3.5-0.1c0.2-0.1,0.3-0.5,0.4-0.7c0.1-0.2,0-0.6,0.1-0.7c0.9-0.9,1.5-2.1,2.7-2.7
		c0.9-0.4,1.2-1.3,0.6-2.1c-0.1-0.2-0.2-0.4-0.4-0.5c-1.4-1.8-2.6-2.1-4.5-1.1c-1.1,0.6-1.4,1.3-1,2.2c0.2,0.4,0.3,0.8,0.5,1.2
		c0.4,0.8,0.2,1.8-0.5,2.3c-0.2,0.2-0.6,0.2-0.9,0.2c0-0.1-0.1-0.1-0.1-0.2c0.1-0.1,0.1-0.3,0.2-0.4c0.8-0.7,0.8-1,0.3-1.9
		c-0.3-0.7-0.7-1.3-0.8-2c-0.2-1-0.1-2-1.1-2.7c-0.7-0.5-2.2-0.9-2.8-0.3c-0.6,0.5-1.1,1.1-1.6,1.6c-1,1.1-1.7,1.2-3,0.9
		c-1.1-0.3-2.5-2.8-2.4-3.9c0-0.8-0.3-1.3-0.9-1.7c-0.7-0.6-1.5-0.9-2.4-1c-0.2,0-0.3-0.3-0.4-0.4c0.2-0.1,0.3-0.3,0.5-0.3
		c0.3,0,0.7,0.1,1,0.1c1.3,0.1,2.2,0.8,2.6,2.1c0.2,0.7,0.5,1.5,0.9,2.2c0.5,1.1,2.3,1.5,3.3,0.8c0.4-0.3,0.8-0.7,1.2-1.1
		c1.2-1.1,3.6-1.2,4.9,0c0.7,0.7,1.6,0.8,2.5,0.6c1.8-0.2,3.5-0.2,5,1.2c0.2,0.1,0.4,0.3,0.6,0.4c0-1.2,0-2.2,0-3.3
		c0-0.8-0.5-1.2-1.1-1.6c-0.8-0.4-1.7-0.9-2-1.9c-1.1,0.8-2.2,0.4-3.2,0.4c-0.1,0-0.2,0-0.3,0c-0.9-0.6-1.8-0.3-2.8-0.1
		c-0.7,0.2-1.3,0.3-2,0.5c-1.2,0.2-2-0.3-2.6-1.3c-0.5-0.9-1.3-1.4-2.3-1.2c-0.8,0.2-1.6,0.5-2.4,0.7c-0.2,0.1-0.6,0.1-0.7,0
		c-0.2-0.3-0.1-0.5,0.2-0.8c1.8-1.5,5.2-1.2,6.6,0.2c0.3,0.4,0.8,0.8,1.3,0.8c1.1,0,2.1-0.2,3.3-0.4c-0.5-0.5-0.9-0.8-1.2-1.1
		c-0.7-0.8-1.6-1.7-1.5-2.9c0.1-0.8-0.1-1.1-0.8-1.4c-1.2-0.5-1.9-2.1-1.5-3.3c0.2-0.7,0.5-1.3,0.8-2c-0.1,0-0.3,0-0.4,0
		c-0.7,0.2-1.3,0-1.9-0.3c-0.7-0.3-0.8-0.8-0.9-1.4c0-1.3-0.1-2.6-0.8-3.7c-0.1-0.2-0.2-0.5-0.3-0.7c-0.6-1.1,0.2-2.3,1.5-2.6
		c0.9-0.2,1.8-0.4,2.7-0.6c0.3-0.1,0.5-0.2,0.8-0.2c-0.6-0.1-1.1-0.1-1.6-0.1c-0.5,0-1.1,0-1.6,0c-1.8-0.1-2.3-0.9-2-2.6
		c0.1-0.5,0.1-1.2-0.1-1.6c-0.6-1-0.9-2.1-1.2-3.2c-0.1-0.4-0.3-0.9-0.6-1.2c-0.5-0.5-1.2-1-1.8-1.4c-1.1-0.7-1.8-3.2-0.8-4.3
		c0.1-0.1,0.2-0.2,0.5-0.4c0,0.4-0.1,0.6-0.1,0.9c0,0.7-0.2,1.4,0.1,2c0.3,0.7,1,1.2,1.6,1.7c0.9,0.7,1.7,1.4,2.2,2.5
		C46,110.5,46.2,110.8,46.4,111.4z M58.3,115.6c0,0.1-0.1,0.2-0.1,0.3c0.1,1.1-0.4,1.9-1.1,2.7c-0.2,0.2-0.4,0.3-0.7,0.3
		c-0.7,0-1.4-0.1-2-0.1c-0.3,0-0.7,0-0.9,0.2c-1.1,0.8-2.3,1.4-3.6,1.8c-0.9,0.2-1.7,0.4-2.6,0.6c0.2,0.6,0.5,1.2,0.7,1.8
		c0,0.1,0.1,0.2,0.2,0.2c0.5,0,1.1,0,1.6,0c0.1,0,0.2,0.1,0.3,0.1c-0.1,0.1-0.1,0.2-0.2,0.2c-0.3,0-0.6,0-0.9,0.1
		c-0.3,0-0.5,0.1-0.8,0.1c0,0.1,0,0.1,0,0.2c0.6,0,1.2,0,1.8,0c-0.4,0.6-1.1,0.4-1.6,0.7c0.5,0,0.9-0.1,1.4-0.2
		c0.1,0,0.3,0.1,0.4,0.1c-0.1,0.1-0.2,0.2-0.3,0.2c-0.5,0.2-1,0.3-1.5,0.4c0,0.1,0,0.1,0,0.2c1.6,0.1,3.1-0.2,4.4-1.1
		c-0.8,1.7-2.5,1.4-4,1.9c1.1,0.3,2,0,2.9-0.4c0.6-0.3,1.3-0.6,1.9-0.9c0.9-0.4,1.8-0.8,2.7-1.2c0-0.1,0-0.1-0.1-0.2
		c-0.3-0.1-0.6-0.1-0.9-0.3c-0.6-0.3-1.3-0.5-1.9-0.9c-0.2-0.1-0.3-0.6-0.4-0.8c0.1-0.1,0.2-0.1,0.2-0.2c0.3,0.2,0.6,0.5,1,0.6
		c1,0.4,2.1,0.7,3.1,1c0.7,0.2,1.4-0.2,1.6-0.8c0.1-0.4,0.2-0.9,0.2-1.4c0-0.2-0.4-0.3-0.6-0.5c-0.6-0.4-1-1.6-0.5-2.2
		c0.2,0.2,0.3,0.4,0.4,0.7c0.1,0.5,0.4,0.8,0.9,1.1c0.3,0.1,0.4,0.5,0.6,0.8c0.1,0.3,0.1,0.6,0.1,0.8c0.1,0.8,0.2,0.9,0.9,0.8
		c0.4,0,0.9-0.1,1.2-0.4c1.1-0.8,2.2-1.1,3.5-1.2c0.2,0,0.3,0.2,0.5,0.4c-0.1,0.1-0.3,0.3-0.4,0.3c-0.3,0.1-0.7,0.1-1,0.1
		c-0.6,0.2-1.1,0.4-1.6,0.6c0,0.1,0,0.2,0.1,0.3c0.8-0.1,1.7-0.1,2.5-0.2c0.7-0.1,1.1-0.4,1.3-1.1c0.2-1-0.2-2.1-0.9-2.3
		c-0.5-0.1-1-0.1-1.5-0.1c0.3,0.4,0.5,0.8,0.7,1.2c-0.1,0.1-0.2,0.1-0.2,0.2c-0.3-0.4-0.8-0.7-1-1.1c-0.3-0.5-0.6-0.6-1.2-0.4
		c0.4,0.5,0.8,1,1.2,1.5c-0.1,0.1-0.1,0.1-0.2,0.2c-0.3-0.3-0.7-0.5-1-0.8c0,0.2-0.1,0.4-0.1,0.6c-0.1-0.1-0.2-0.1-0.2-0.1
		c-0.6-0.7-1.1-1.5-2-1.9c-0.2-0.1-0.3-0.3-0.4-0.4c-0.4-0.5-0.6-1.2-0.3-1.7c0.2-0.3,0.9-0.5,1.4-0.5c1.2,0.1,2.3,0.4,3.5,0.6
		c1.2,0.2,1.8-0.1,2.2-1.2c0.1-0.3,0.2-0.7,0.3-1.1c0.1-0.8-0.2-1.5-1-1.7c0.2,0.3,0.4,0.5,0.5,0.8c0.1,0.1,0,0.3-0.1,0.4
		c-0.1-0.1-0.3-0.1-0.4-0.2c-0.2-0.3-0.3-0.6-0.5-0.9c-0.1-0.1-0.3-0.2-0.5-0.3c0,0.1-0.1,0.1-0.1,0.2c0.3,0.4,0.6,0.9,0.9,1.3
		c0.1,0.2,0.1,0.4,0.1,0.6c-0.2-0.1-0.4-0.2-0.5-0.3c-0.3-0.5-0.6-0.9-1-1.4c-0.1-0.1-0.3-0.2-0.5-0.2c-0.1,0.1-0.1,0.1-0.2,0.2
		c0.3,0.4,0.6,0.8,0.9,1.2c0.1,0.1,0,0.3,0,0.5c-0.1-0.1-0.3-0.1-0.4-0.2c-0.4-0.4-0.7-0.9-1-1.4c-0.2-0.2-0.4-0.3-0.6-0.4
		c0,0.1-0.1,0.1-0.2,0.2c0.3,0.4,0.6,0.8,1,1.2c0,0.1-0.1,0.1-0.1,0.2c-0.2-0.1-0.4-0.2-0.5-0.3c-0.4-0.5-0.8-1.1-1.3-1.4
		c-0.7-0.4-1-1-1.2-1.7c-0.4-1.2-0.1-2,1-2.6c0.1-0.1,0.3-0.2,0.4-0.3c-0.1-0.1-0.2-0.2-0.2-0.2c-0.8-0.6-1.1-0.5-1.6,0.4
		c-0.2,0.3-0.5,0.5-0.6,0.8c-0.4,0.6-0.8,1.1-1.1,1.7c-0.2,0.3-0.2,0.7-0.4,1c-0.6,0.9-1.7,1.1-2.4,0.4c-0.1-0.1-0.5-0.2-0.7-0.1
		c-0.6,0.3-1.1,0.7-1.8,0.8c-1.8,0.3-3.5,0.3-5.2-0.6c-0.8-0.4-1.1-0.2-1.1,0.7c0,0.9,0,1.7-0.1,2.6c0,0.9,0.4,1.3,1.3,1.3
		c0.7,0,1.3-0.2,2-0.2c0.2,0,0.4,0.1,0.6,0.1c0,0.2,0,0.4-0.1,0.4c-1.2,0.2-2.3,0.6-3.5,0.1c-0.1,0-0.2,0-0.5-0.1
		c0.3,0.2,0.4,0.4,0.5,0.4c0.8,0.1,1.6,0.3,2.4,0.2c1.2,0,2.3-0.4,3.5,0c0.5,0.2,0.8-0.2,0.9-0.5c0.2-0.5,0.2-1,0.3-1.5
		c0.1-1,1-1.9,1.9-1.7c0.5,0.1,1,0.5,1.4,0.9c0.6,0.5,1.6,0.8,2.2,0.3c0.3-0.2,0.5-0.6,0.6-1c0.1-0.4-0.3-0.7-0.8-0.7
		c-0.4,0-0.4-0.3-0.4-0.6c1.3-0.1,1.9,0.4,1.9,1.5C61.2,115.2,60.6,115.6,58.3,115.6z M64.1,143.6c-0.1,0-0.1,0-0.2,0
		c0,0.8,0,1.6-0.1,2.4c-0.1,0.9-0.2,1.9-0.5,2.8c-0.6,1.5-1.6,2.8-3.1,3.6c-0.6,0.3-0.8,0.9-0.7,1.5c0.3-0.1,0.6-0.1,0.8-0.2
		c1.1-0.7,2.3-1.2,2.8-2.5c0.1-0.2,0.3-0.4,0.5-0.6c0.8-0.7,1.3-1.6,1.8-2.5c0.1-0.1,0.1-0.3,0.2-0.5c0.2-0.7,0.3-1.4,0.6-2.1
		c0.3-1,0.4-2.1,0.1-3.1c-0.4-1-0.4-2.1-0.5-3.1c0-0.2,0.2-0.3,0.3-0.5c0.1,0.2,0.4,0.3,0.4,0.5c0.1,0.4,0,0.9,0.1,1.3
		c0.2,0.8,0.6,1.7,0.8,2.5c0.2,0.5,0.2,1.1,0.3,1.7c0.1,0,0.1,0,0.2,0c0.1-0.1,0.2-0.3,0.2-0.4c0.4-0.6,0.1-1.2,0.1-1.8
		c0.1-1.4-0.6-2.5-1.2-3.7c-0.5-1-1.1-2-0.8-3.1c0.4-1.4-0.3-2.5-1.2-3.5c-0.4-0.5-1-0.9-1.6-1c-1.7-0.3-2.5-1.4-3.2-2.7
		c-0.3-0.4,0-1.1,0.5-1.3c0,0.1,0,0.2,0,0.3c0.1,1,0.6,1.8,1.5,2.2c0.7,0.3,1.6,0.5,2.4,0.7c0.7,0.2,1.3,0.4,1.7,1
		c0.4,0.5,0.8,1,1,1.5c0.3,0.8,0.7,1.6,0.2,2.5c-0.3,0.6-0.1,1.3,0.3,1.8c0.3,0.5,0.7,0.9,0.9,1.4c0.5,0.9,0.9,1.9,1.3,2.8
		c0.6-1.2,0.2-2.5-0.5-3.6c-0.7-1.3-0.9-2.5-0.8-3.9c0-0.4-0.1-0.9,0.6-1.2c0.1,1.7-0.2,3.4,1,4.8c0.5-0.8,0.4-1.6,0.4-2.5
		c-0.1-1-0.6-1.7-1.3-2.3c-0.5-0.4-1.1-0.7-1.7-0.9c-0.7-0.3-1.2-0.9-1.4-1.7c-0.1-0.4,0-0.7,0.1-1.1c0-0.3,0.1-0.6,0.2-1
		c0.1,0,0.2,0,0.3,0c0.1,0.2,0.2,0.4,0.2,0.7c0.2,0.8,0.4,1.6,1,2.2c1.1-1.6,1.5-2.8-0.7-3.7c-0.3,0.1-0.6,0.1-0.8,0.1
		c-0.2,0-0.5-0.1-0.7,0c-0.4,0.1-0.8,0.3-1.2,0.3c-0.2,0-0.4-0.1-0.5-0.2c0.1-0.2,0.2-0.4,0.3-0.5c0.3-0.2,0.6-0.4,1.1-0.7
		c-0.6-0.2-1-0.6-1.5-0.5c-0.7,0-1.3,0.4-1.9,0.6c-0.2,0.1-0.3,0.3-0.5,0.3c-0.2,0.1-0.5,0.1-0.5,0c-0.1-0.3-0.1-0.6-0.1-0.9
		c0-0.1,0.2-0.2,0.4-0.3c0.4-0.1,0.8-0.2,1.2-0.3c-0.2-0.7-0.4-1.2-1.1-1.2c-0.6,0.1-1.2,0.2-1.5,0.8c-0.4,0.8-0.9,1.5-1.2,2.3
		c-0.2,0.4-0.3,0.9-0.3,1.3c0,1.1,0,2.3,0,3.4c0,0.3-0.1,0.6-0.2,1c-0.1,0-0.1,0-0.2,0c0-0.7,0.1-1.3,0.1-2c0-0.7-0.1-1.4-0.1-2.1
		c-0.1,0-0.1,0-0.2,0c-0.1,0.4-0.2,0.9-0.3,1.3c0,0.6,0.1,1.2,0.1,1.8c0,0.4,0,0.4-0.4,0.3c-0.1-0.7-0.2-1.4-0.2-2.1
		c-0.1,0-0.2,0-0.3,0c0,0.4,0,0.9,0,1.3c-0.1,0.9-0.1,0.9-0.5,0.9c0.1-0.5,0.1-1,0.2-1.4c-0.1,0-0.2,0-0.3-0.1
		c-0.1,0.3-0.2,0.5-0.3,0.8c0,0.3,0,0.6,0,0.9c0,0.1-0.3,0.2-0.4,0.4c0-0.1-0.1-0.3-0.1-0.4c0-0.3,0.1-0.7,0.1-1.1
		c-0.8,0.5-1.4,0.9-2.2,1.3c0,0.1,0,0.4,0.1,0.6c0.2,0.6,0.3,1.3,0.6,1.8c0.5,0.9,1.5,1.1,2.3,1.3c1,0.3,2,0.6,2.9,0.9
		c0,0.1,0,0.2,0,0.2c-0.2,0.1-0.4,0.3-0.6,0.3c-0.7,0-1.5-0.1-2.2,0c-0.3,0-0.5,0.1-0.8,0.2c0.2,0.3,0.5,0.6,0.8,0.8
		c0,0,0.2,0,0.2,0c0.4,0.1,0.9,0.2,1.3,0.3c0.3,0.1,1.8-0.4,2-0.6c0-0.1,0.1-0.1,0.1-0.2c0.2-1-0.2-1.9-1.1-2.4
		c-0.4-0.2-0.6-0.5-0.3-0.9c1.2,0.1,1.6,1,2.2,1.7c0.2,0.2,0.1,0.5,0.2,0.8c0,0.5,0,0.9,0,1.4c0,0.5,0.3,0.9,0.9,0.9
		c0.2-0.8,0.3-1.6,0.5-2.3c0.1,0,0.1,0,0.2,0c0,0.8-0.1,1.6-0.1,2.5c0.2-0.4,0.2-0.8,0.3-1.2c0.1-0.4,0.1-0.8,0.2-1.2
		c0.1,0,0.2,0,0.3,0c-0.1,0.9-0.1,1.7-0.2,2.6c0.2-0.1,0.2-0.2,0.2-0.3c0.1-0.9,0.2-1.8,0.4-2.6c0.1-0.5,0.3-1,0.1-1.5
		c0-0.1,0.2-0.3,0.3-0.6c0.2,0.2,0.4,0.4,0.4,0.5c0.4,1.5,0.8,3.1,0.7,4.7c-0.1,0.7,0,1.5,0.1,2.2c0,0.5,0.2,0.9,0.2,1.4
		c0,0.8,0,1.7-0.1,2.5c0,0.2-0.1,0.4-0.2,0.6c-0.4-0.4-0.9-0.6-0.8-1.3C64.4,145.1,64.2,144.3,64.1,143.6z M65.8,15.9
		c-0.8-0.7-1.6-1.5-2.6-2.3c-1.5-1.1-3.1-1.3-4.8-0.5c-0.9,0.5-1.8,1-2.7,1.4c-0.4,0.2-0.5,0.3-0.3,0.7c0.6,1.6,0.6,3.1-0.5,4.5
		c-0.6,0.8-1.3,1.6-1.8,2.5c-0.5,0.9-1,1.8-1.2,2.7c-0.3,1.3,0.5,2.4,1.2,3.4c0.1,0.1,0.4,0.1,0.6,0.1c0.7-0.1,1.4-0.4,2.1-0.4
		c1.7,0,3.4,0.3,5,0.9c0.8,0.3,1.6,0.6,2.3,1c0-0.1,0-0.2,0-0.2c0.1-0.7-0.1-1.5,0.4-2.2c0.1-0.1,0-0.3-0.1-0.5
		c-0.4-1-0.4-1.9,0.5-2.7c0.1-0.1,0.2-0.4,0.2-0.6c-0.1-1.2-0.2-2.3,0.4-3.4c0-0.1,0-0.2,0-0.3c-0.2-0.8-1-1.1-1.5-1.5
		c-0.2-0.1-0.4-0.1-0.6-0.1c-1.3,0-2.3,0.8-3.3,1.6c-0.8,0.6-1.7,0.7-2.5,0.2c-0.1-0.1-0.2-0.4-0.2-0.5c0-0.1,0.3-0.3,0.4-0.3
		c0.9,0.2,1.5-0.3,2.2-0.7c0.8-0.6,1.7-1.1,2.7-1.4c0.5-0.2,1.2-0.2,1.7,0.2c0.3,0.2,0.6,0.3,0.7,0.4C64.8,17.1,65.2,16.6,65.8,15.9
		z M71.1,25.9C71.1,26,71,26,71,26.1c0.3,0.4,0.6,0.7,0.9,1.1c0.2,0.2,0.4,0.3,0.5,0.5c0.3,0.8,1.1,1,1.7,1.4
		c0.3,0.1,0.6,0.1,0.9,0.1c1.3-0.2,2.2-1,3.1-1.8c0.6-0.5,1.2-1.1,2.1-1c1.1,0,2,0.3,2.7,1.1c0.5,0.5,1.6,0.8,2.1,0.5
		c1.1-0.7,1.8-2,0.9-3.2c-0.3-0.5-0.7-0.9-1-1.4c-0.9-1.1-1.7-2.3-1.8-3.8c0-0.8-0.1-1.6-0.3-2.3c-0.9-2.3-2.6-3.7-4.9-4.3
		c-0.7-0.2-1.5-0.3-2.1,0c-1.2,0.5-2.3,1.3-3.5,2c0.7,0.4,1.3,0.8,2,1.2c0.6,0.4,0.7,0.9,0.4,1.4c-0.4,0.6-0.8,0.6-1.5,0.3
		c-0.2-0.1-0.3-0.2-0.5-0.3c-0.7-0.4-1.5-0.4-2.3-0.1c0.5,0.3,1,0.5,1.5,0.7c0.1,0,0.1,0.1,0.1,0.2c0.3,0.4,1.2,0.7,1.8,0.6
		c0.5-0.1,0.9-0.2,1.4-0.2c1.9-0.1,3.1,1,4.1,2.4c0.5,0.8,1.1,1.4,2.1,1.6c0.3,0,0.7,0.2,1,0.3c0.2,0.1,0.3,0.2,0.5,0.4
		c-0.2,0.1-0.3,0.2-0.4,0.2c-1.2,0.1-2.4,0-3.4-0.9c-0.3-0.3-0.7-0.7-1-1c-0.6-0.5-0.9-1.2-1.8-1.4c-0.7-0.1-1.8,0.3-1.9,0.8
		c-0.3,1.2-1.3,1.5-2.2,0.7c-0.3-0.2-0.5-0.5-0.8-0.7c-0.8-0.5-1.7-0.8-2.6-0.6c0.5,0.4,0.9,0.8,1.4,1.3c0.5,0.5,1,0.9,1.7,1.1
		c0.4,0.1,0.8,0.3,1.2,0.5c0.6,0.4,0.9,1.4,0.6,2c-0.4,0.8-1.1,1-1.9,0.8C71.5,26.1,71.3,26,71.1,25.9z M64.4,107.4
		c0.2,0.3,0.3,0.5,0.4,0.6c0.4,0.6,0.7,0.7,1.3,0.2c0.3-0.3,0.6-0.6,0.9-0.9c0.8-1,0.8-1.9-0.2-2.7c-0.7-0.6-1.5-0.9-2.5-0.7
		c-0.1,0-0.3-0.1-0.4-0.2c-0.2-0.2-0.4-0.5-0.6-0.8c-0.5-0.7-1.1-1.4-2.1-1.2c-0.9,0.1-1.8,0.3-2.6,0.6c-1.6,0.6-3.2,0.8-4.9,0.5
		c-0.3-0.1-0.7-0.2-1-0.2c-1,0-1.8-0.3-2.5-1c0,0.3,0.1,0.6,0.3,0.7c0.6,0.3,1.2,0.6,1.8,0.9c0.5,0.2,1,0.2,1.5,0.3
		c0.2,0,0.3,0.3,0.4,0.4c-0.2,0.1-0.3,0.2-0.5,0.2c-1.2-0.2-2.4-0.5-3.4-1.1c-0.1-0.1-0.2-0.1-0.3-0.2c-0.1,0.5-0.2,1-0.3,1.5
		c-0.4,1.7,0.4,2.8,2,3.1c0.7,0.1,1.4,0.3,2.1,0.4c0.5,0.1,1,0.1,1.4,0.2c0.4,0,0.7-0.2,0.8-0.6c0.1-0.4,0.2-0.8,0.3-1.2
		c0.4-1,0.8-1.3,1.9-1.1c0.5,0.1,0.9,0.3,1.4,0.5c0.4,0.1,0.8,0.3,1.2,0.2c0.6-0.1,1.2-0.3,1.8-0.4c0.7-0.1,1.5-0.1,2.2-0.2
		c0,0.1,0,0.1,0,0.2c-0.4,0.3-0.9,0.3-1.3,0.3c-0.5,0-1,0.1-1.5,0.2c0,0.1,0,0.1,0,0.2c0.2,0.1,0.4,0.3,0.6,0.3c0.7,0,1.4,0.1,2.1,0
		c0.6,0,0.9,0.4,1.2,0.9C65.4,107.4,64.9,107.4,64.4,107.4z M52.5,97.7c0,0.7,0.4,1.3,1.2,1.3c1.4,0.1,2.8,0.3,4.2,0.3
		c0.3,0,0.6-0.2,0.8-0.3c0.3-0.4,0.6-0.8,0.9-1.2c0.5-1,1.4-1.1,2.3-0.8c0.3,0.1,0.5,0.5,0.6,0.7c0.2,0.9,0.4,1,1.3,0.7
		c0.2-0.1,0.5-0.2,0.7-0.3c0.1,0,0.3-0.1,0.5-0.1c1,0.3,1.9,0.6,2.9,0.9c0.2,0.1,0.5,0,0.6-0.1c0.1-0.1,0.1-0.4,0-0.6
		c-0.1-0.4-0.3-0.9-0.4-1.3c-0.2-0.6-0.3-1.3-1.1-1.7c-0.2-0.1-0.3-0.5-0.5-0.8c-0.1-0.2-0.2-0.4-0.3-0.6c-0.3,0.2-0.5,0.3-0.8,0.5
		c0.6,0.9,1.1,1.9,1.7,2.8c0,0-0.1,0.1-0.2,0.1c-0.1-0.1-0.2-0.1-0.2-0.2c-0.5-0.7-1-1.4-1.5-2.1c-0.1-0.2-0.3-0.3-0.4-0.4
		c0,0-0.1,0.1-0.1,0.1c0.4,0.7,0.8,1.3,1.2,2c-0.1,0.1-0.2,0.1-0.2,0.2c-0.5-0.7-1-1.4-1.5-2c0,0.3,0.2,0.5,0.2,0.7
		c0.1,0.2,0.1,0.5,0.2,0.8c-0.2-0.1-0.2-0.1-0.2-0.1c-0.1-0.1-0.1-0.2-0.2-0.2c-0.5-0.6-0.9-1.3-1.8-0.8c-0.1,0-0.2,0-0.4,0
		c-1.5,0.1-2.8-0.3-4.2-0.9c-0.9-0.4-1.8-0.6-2.8-0.8c0,0.1-0.1,0.2-0.1,0.3c0.7,0.2,1.4,0.3,2,0.5c0.2,0.1,0.3,0.3,0.4,0.4
		c-0.2,0.1-0.4,0.3-0.6,0.3c-0.8-0.2-1.5-0.5-2.3-0.8c-0.4-0.1-0.7-0.3-1.1-0.5c-0.1,0.4-0.2,0.8-0.3,1.3c-0.1,0.8,0.1,0.9,0.9,1
		c0.2,0,0.4,0.1,0.6,0.2c0,0.1-0.1,0.2-0.1,0.3c-0.5-0.1-1.1-0.2-1.6-0.3c0,0-0.1,0.1-0.1,0.1c0.1,0.2,0.2,0.4,0.4,0.5
		c0.2,0.1,0.5,0.1,0.8,0.2c0.1,0,0.2,0.2,0.3,0.2c0,0-0.1,0.1-0.1,0.1c-0.5-0.1-1-0.1-1.5-0.2c0,0.1,0,0.1,0,0.2
		c0.9,0.7,1.7,1.5,3.1,0.9c-0.4,0.7-0.9,0.7-1.4,0.6C53.8,98.3,53.2,98,52.5,97.7z M73.5,82.7c0.1-0.3,0.2-0.5,0.4-0.7
		c0.1-0.1,0.2-0.2,0.3-0.3c0.1,0.1,0.2,0.2,0.2,0.4c0.1,0.5,0.2,1,0.3,1.5c0.1,0.6,0.5,0.7,0.9,0.4c0.3-0.2,0.5-0.6,0.8-0.7
		c0.6-0.3,0.4-0.6,0.1-1c-0.7-0.8-1.3-1.7-2-2.6c-0.1-0.1-0.5-0.2-0.6-0.2c-0.7,0.4-1.4,0.8-2.1,1.2c-0.2,0.1-0.4,0.2-0.7,0.3
		c-2,0.3-3.9-0.3-5.8-0.9c-0.6-0.2-1.1-0.8-1.9-0.6c-0.5,0.1-1,0.5-1,1.1c0,0.6,0.5,0.5,0.9,0.5c0.1,0,0.1,0.1,0.2,0.1
		c-0.5,0.9-0.9,0-1.5,0c0.1,0.3,0.2,0.5,0.3,0.6c0.4,0.2,0.9,0.3,1.3,0.5c0.2,0.1,0.3,0.2,0.4,0.3c-0.2,0-0.4,0.2-0.5,0.1
		c-0.5-0.1-1-0.3-1.5-0.5c-0.1,0-0.3,0-0.4,0c0,0,0,0.1,0,0.1c0.8,0.4,1.7,0.8,2.6,1.2c-0.1,0.4-0.3,0.4-0.6,0.2
		C62.3,83,62,83,61.5,83.2c0.8,0.4,1.7,0.9,2.6,1.1c1.1,0.2,2.3,0.4,3.3,1c0.5,0.3,0.8,0.1,1.1-0.4c0.3-0.6,0.6-1.1,1-1.6
		c0.6-0.7,1.8-0.4,2.1,0.5c0.1,0.5,0.1,1,0.2,1.5c0.1,0.4,0.2,0.9,0.3,1.3c0,0.1,0.3,0.2,0.3,0.2c0.3-0.3,0.7-0.5,0.9-0.9
		c0.1-0.1-0.3-0.4-0.4-0.6c-0.1-0.1-0.3-0.3-0.4-0.4c0.1-0.1,0.1-0.1,0.2-0.2c0.2,0.2,0.5,0.3,0.8,0.5c0.1,0.1,0.3,0,0.5,0
		c-0.1-0.1-0.1-0.3-0.2-0.4c-0.3-0.2-0.6-0.4-0.8-0.7c0-0.1,0.1-0.1,0.1-0.2c0.3,0.2,0.7,0.3,1,0.5c0-0.1,0.1-0.1,0.1-0.2
		c-0.3-0.3-0.6-0.6-1-0.9c0,0,0.1-0.1,0.1-0.1c0.2,0.1,0.4,0.1,0.7,0.2C73.6,83.1,73.5,82.9,73.5,82.7z M65.5,73.7
		c-0.1,0.1-0.1,0.2-0.2,0.2c0.1,0.1,0.2,0.3,0.3,0.3c0.3,0,0.6-0.1,0.9-0.1c0.2,0,0.4,0.1,0.6,0.2c-0.2,0.1-0.4,0.3-0.6,0.3
		c-0.4,0-0.9,0-1.3,0c0,0.1,0,0.2,0,0.2c0.4,0.1,0.9,0.1,1.3,0.2c0,0.1,0,0.2,0,0.3c-0.5,0-1,0.1-1.4,0.1c0,0.1,0,0.1,0,0.2
		c0.6,0.1,1.2,0.3,1.8,0.4c0,0.1,0,0.1,0,0.2c-0.3,0-0.5,0.1-0.8,0.1c-0.4,0-0.8-0.2-1.2-0.2c-0.2,0-0.6,0.3-0.7,0.5
		c-0.1,0.1,0.2,0.6,0.4,0.6c0.7,0.2,1.4,0.4,2.1,0.3c1.3-0.1,2.6-0.2,3.9,0.2c0.8,0.2,1.5-0.1,1.9-0.7c0.1-0.2,0.2-0.3,0.3-0.5
		c0.4-0.6,1.1-0.7,1.7-0.4c0.6,0.3,0.7,0.8,0.3,1.5c-0.3,0.6-0.1,1.5,0.5,1.9c0.1,0.1,0.5,0,0.5,0c0.1-0.7,0.4-1.4,0.2-2.1
		c-0.2-0.6-0.2-0.7,0.4-0.8c-0.3-0.4-0.6-0.7-0.8-1c0.1-0.1,0.1-0.1,0.2-0.2c0.3,0.3,0.6,0.5,0.9,0.8c0.1-0.2,0.1-0.4,0-0.5
		c-0.3-0.4-0.6-0.8-0.9-1.1c-0.1-0.1-0.1-0.3-0.2-0.5c0,0,0.1-0.1,0.1-0.1c0.6,0.5,1.1,1.1,1.7,1.6c0.1-0.1,0.1-0.1,0.2-0.2
		c-0.5-0.7-1-1.3-1.5-2c0.2,0,0.3,0,0.4,0.1c0.4,0.5,0.9,1,1.3,1.4c0.1,0.1,0.3,0.1,0.4,0.1c-0.1-0.1-0.1-0.3-0.2-0.4
		c-0.2-0.4-0.5-0.7-0.7-1.1c-0.1-0.2-0.1-0.4-0.1-0.6c0,0,0.1,0,0.1,0c0.4,0.5,0.7,1,1.1,1.4c-0.1-0.3-0.2-0.6-0.4-0.9
		c-0.1-0.2-0.3-0.5-0.4-0.8c0.1,0,0.2-0.1,0.2-0.2c0.4,0.5,0.8,1,1.1,1.5c0.1,0,0.1,0,0.2-0.1c0-0.2,0-0.5-0.1-0.7
		c-0.4-0.6-0.8-1.2-1.1-1.8c-0.2-0.3-0.5-0.3-0.7-0.1c-0.5,0.3-1,0.6-1.4,1c-1.2,1-2.4,1.8-4,1c-0.6-0.3-1.4-0.3-2.1-0.4
		c-1.2-0.2-2.3-0.5-3.5-0.6c-0.2,0-0.4,0.3-0.7,0.5c0.2,0.1,0.3,0.3,0.5,0.3c0.3,0.1,0.7,0,1,0.1c0.7,0.2,1.3,0.4,2,0.6
		c0,0.1,0,0.1,0,0.2C67.9,74.1,66.7,73.9,65.5,73.7z M64.3,87.7c0,0,0.1,0.1,0.1,0.1c-0.1,0.2-0.3,0.5-0.4,0.5
		c-0.6,0-1.3,0.1-1.9-0.1c-0.9-0.3-1.8-0.7-2.7-1.1c-0.2-0.1-0.5-0.2-0.7-0.2c-0.3,0-1.4,1.6-1.5,2c-0.1,1.6,1.1,3,2.7,3
		c1.1,0,2.1,0.3,3.1,0.8c0.6,0.3,0.8,0.2,1.1-0.4c0.1-0.4,0.3-0.7,0.5-1c0.2-0.5,0.6-0.7,1.1-0.7c0.4,0,0.7,0.2,1.1,0.2
		c0.9,0.2,1.8,0.3,2.8,0.4c0.2,0,0.5,0,0.6-0.1c1-1,1.1-1.1,0.4-2.4c-0.1-0.1-0.1-0.2-0.1-0.3c0,0-0.1,0-0.1-0.1
		c-0.1,0.1-0.1,0.2-0.3,0.4c-0.4-0.5-0.7-0.9-1-1.4c-0.1,0-0.1,0.1-0.2,0.1c0.3,0.5,0.6,1,0.8,1.4c0,0-0.1,0.1-0.1,0.1
		c-0.1-0.1-0.3-0.1-0.4-0.2c-0.3-0.4-0.5-0.8-0.7-1.1c-0.1-0.2-0.4-0.3-0.5-0.4c0,0.1-0.1,0.1-0.1,0.2c0.2,0.5,0.5,0.9,0.7,1.4
		c0.1,0.1,0,0.3,0,0.4c-0.1-0.1-0.3-0.1-0.4-0.3c-0.3-0.5-0.5-1-0.8-1.4c-0.1-0.1-0.3-0.3-0.4-0.3C66.1,87.5,65.2,87.6,64.3,87.7z
		 M77.4,64.3c-0.5,0.5-1.1,1-1,1.9c0,0.1-0.1,0.2-0.2,0.3c-0.6,0.7-1.9,0.7-2.6,0c-0.3-0.3-0.7-0.6-1.1-0.6c-1.1-0.1-2.2-0.1-3.3,0
		c-0.8,0-1,0.4-1.1,1.2c1.1,0.1,2.2,0.2,3.3,0.4c0,0.1,0,0.2,0,0.2c-0.2,0-0.3,0.1-0.5,0.1c-0.8-0.1-1.6-0.1-2.4-0.2
		c-0.3,0-0.7-0.1-0.7,0.5c1.3,0.2,2.7,0.4,4.2,0.6c-0.3,0.1-0.4,0.2-0.6,0.2c-0.8-0.1-1.6-0.2-2.5-0.3c-0.3,0-0.6-0.1-0.9-0.1
		c0,0,0,0.1,0,0.1c1.1,0.4,2.2,0.8,3.3,1.2c-0.1,0.2-0.3,0.3-0.4,0.2c-0.3-0.1-0.6-0.2-0.8-0.3c-0.8-0.4-1.6-0.5-2.1-0.4
		c0.8,0.8,1.8,0.9,2.8,0.9c0.2,0,0.5,0,0.7,0c0.5,0.1,0.9-0.1,1.1-0.6c0.1-0.2,0.3-0.3,0.5-0.4c1.3-0.5,2.2,0.2,3.1,1
		c0.3,0.3,0.8,0.3,1.2,0c0.5-0.4,1-0.8,1.5-1.2c0.2-0.1,0.4-0.2,0.6-0.2c0.2-0.1,0.6-0.2,0.6-0.3c0-0.4,0.1-1-0.1-1.3
		C79.3,66.1,78.3,65.3,77.4,64.3z M73.6,61.5c0-0.1,0-0.2,0-0.3c1.4,0.1,2.8,0.2,4.2,0.3c-0.1-0.3-0.3-0.6-0.4-1
		c0-0.3,0.1-0.7,0.3-0.9c0.1-0.1,0.7,0,0.9,0.2c0.5,0.5,1,1.1,1.1,1.8c0.5-0.4,1-0.8,1.7-1.4c-0.5-0.2-0.8-0.4-1.1-0.6
		c-0.6-0.3-1.2-0.6-1.3-1.3c-0.1-0.5-0.4-0.6-0.8-0.7c-0.4-0.1-0.7,0.1-0.8,0.4c-0.1,0.2-0.3,0.5-0.4,0.7c-0.3,0.4-0.6,0.9-1.2,0.8
		c-1.2-0.3-2.5-0.3-3.7-0.3c-0.9,0-1.6,0.3-1.8,1c0.4,0.3,0.9-0.2,1.3,0.4c-1.9,0.4-1.9,0.4-2,0.7c0.7,0,1.4,0,2.1,0
		c0,0.1,0,0.2,0,0.2c-0.8,0.2-1.6,0.1-2.4,0.4c0.7,0,1.4,0,2,0c0.2,0.6-0.2,0.5-0.5,0.5c-0.3,0-0.6,0-0.8-0.1
		c0.1,0.2,0.2,0.2,0.3,0.3c0.1,0.1,0.2,0.2,0.4,0.3c-0.1,0-0.3,0.1-0.4,0.1c-0.3,0-0.5-0.1-0.8-0.1c0,0.1,0,0.1,0,0.2
		c0.6,0.5,1.4,0.3,2.1,0.2c0.7-0.1,1.4-0.2,2.2-0.3c1.9-0.2,1.9-0.1,2.2-0.5c-0.7,0-1.4,0-2,0c0-0.1,0-0.2,0-0.3
		c0.3,0,0.5-0.1,0.8,0c0.6,0.2,1.1-0.2,1.7,0c0.5,0.2,1,0.1,1.2,0.6c0.1,0.2,0.3,0.4,0.5,0.6c0-0.1,0-0.1,0-0.2
		c0.4,0,0.7-0.1,1.1-0.1c0.1,0,0.2,0.2,0.3,0.2c-0.1,0.1-0.2,0.2-0.4,0.2c-0.3,0-0.5,0-0.9,0c0.2,0.3,0.3,0.5,0.4,0.6
		c0.3,0.4,0.7,0.7,1.1,0.4c0.3-0.2,0.3-0.8,0.3-1.2c0-0.4-0.2-0.8-0.3-1.2c-0.1-0.3-0.1-0.4-0.5-0.4c-0.6,0.1-1.2,0.1-1.8,0
		c-0.4,0-0.7-0.2-1.1-0.3c-0.8-0.1-1.5,0-2.3-0.1C73.8,61.6,73.7,61.5,73.6,61.5z M78.4,53.3c0-0.1,0.2-0.4,0.3-0.7
		c0-0.3,0.1-0.6-0.1-0.8c-0.1-0.2-0.5-0.3-0.7-0.2c-1,0.3-2,0.5-3,0.9c-1.2,0.5-2.5,1.1-3.9,1.2c-1.3,0.2-1.6,0.4-1.6,1.5
		c0,0.8,0.4,1.6,0.7,2.4c0.1,0.2,0.4,0.3,0.7,0.3c1,0.1,2,0,2.9-0.6c0.2-0.1,0.3-0.4,0.2-0.6c-0.1-0.6-0.3-1.1-0.5-1.7
		c0.2,0.1,0.4,0.1,0.6,0.2c-0.1-0.4-0.1-0.7-0.2-1.2c0.2,0.1,0.3,0.2,0.4,0.2c0.1-0.2,0.1-0.4,0.2-0.6c0.2,0.1,0.3,0.2,0.4,0.3
		c0.1-0.2,0.1-0.3,0.2-0.5c0.2,0.1,0.2,0.2,0.3,0.2c0.6,0.7,1.2,1.4,1.7,2.1c0.5,0.7,1.3,1.1,2.1,1.3c0.2,0.1,0.5-0.1,0.6-0.3
		c0.1-0.2,0-0.5-0.1-0.7c-0.6-0.6-1.1-1.1-0.9-1.9c-0.4,0.2-0.9,0.3-1.2,0.6c-0.5,0.4-0.7,0.1-1-0.2c-0.2-0.2-0.3-0.4-0.4-0.6
		c-0.1-0.4-0.1-0.7,0.4-0.7C77.1,53.3,77.7,53.3,78.4,53.3z M69.2,38c0.2-0.3,0.3-0.6,0.6-0.9c0.7-0.7,0.7-1-0.1-1.6
		c0,0-0.1-0.1-0.1-0.1c-0.6-0.5-1-0.5-1.7-0.1c-0.3,0.2-0.7,0.4-1.1,0.4c-0.7,0-0.9,0.4-0.9,1c0,0.4,0,0.8,0,1.1
		c0,1.1,0.8,1.4,1.7,1.2c0.7-0.2,1.4-0.4,2.2-0.5c0.8-0.1,1.7-0.2,2.3,0.7c0.1,0.1,0.4,0.3,0.5,0.2c0.5-0.2,0.8,0,1.1,0.2
		c0.5,0.4,1.1,0.3,1.7,0c0.1-0.1,0.2-0.4,0.3-0.5c0-0.2-0.1-0.4-0.2-0.5c-0.4-0.2-0.8-0.2-1.2-0.4c0.1,0.7-0.5,0.6-0.8,0.6
		c-0.4,0-0.9-0.3-0.8-0.8c0.2-0.8-0.3-0.8-0.8-0.9c-0.2-0.1-0.4-0.1-0.6-0.2c-0.4-0.2-0.6-0.1-0.7,0.3c-0.2,0.4-0.4,0.7-0.5,1
		C69.7,38.3,69.5,38.2,69.2,38z M72.5,48.9c0.4,0,0.6,0.1,0.7,0.1c0.1,0,0.3,0.1,0.3,0.1c-0.2,0.9,0.5,1.1,1,1.4
		c0,0,0.1,0.1,0.1,0.2c0.5,0.8,1.3,1.1,2.2,0.6c0.4-0.2,0.7-0.4,1.1-0.7c0-0.2,0-0.5-0.1-0.7c-0.1,0.5-0.4,0.7-0.8,0.7
		c-0.5,0-1.3,0-1.3-0.6c0.1-1.1-0.8-1.3-1.4-1.7c-0.1-0.1-0.3-0.2-0.5-0.3c-1-0.9-2.7-0.7-3.4,0.2c-0.4,0.5-0.8,1.1-1.3,1.6
		c-0.7,0.7-0.4,1.5-0.2,2.2c0.2,0.6,0.8,0.7,1.3,0.7c0.4,0,0.6-0.1,0.5-0.5c-0.1-0.4-0.2-0.9-0.2-1.3c0-0.2-0.1-0.5-0.1-0.7
		c0.1,0,0.2,0,0.3-0.1c0.2,0.8,0.4,1.6,0.6,2.3c0,0,0,0,0.1,0c0-1,0-1.9,0-2.9c0.1,0,0.1,0,0.2,0c0.2,0.7,0.3,1.5,0.4,2.2
		c0-0.4,0-0.8,0-1.2c0-0.4-0.2-0.8,0.3-1.1c0,0.2,0.1,0.4,0.1,0.6C72.5,49.5,72.5,49.2,72.5,48.9z M73.2,42.6
		c0.2,0.2,0.3,0.2,0.3,0.2c0.3,0.5,0.5,1.1,1.3,0.8c0.1,0,0.2,0.1,0.3,0.1c0.5,0.2,1,0.4,1.5,0.5c0.2,0,0.5-0.3,0.6-0.5
		c0.2-0.4,0-0.7-0.4-0.9c-0.2-0.1-0.6,0-0.7,0.1c-0.3,0.7-0.6,0.7-1.3,0.5c-0.7-0.3-1.2-0.7-1.2-1.4c-0.1-0.8-1-1.3-1.7-1
		c-0.8,0.4-1.2,0.2-1.6-0.6c-0.2-0.4-0.5-0.9-1.1-0.8c-0.5,0.1-1.1,0.3-1.6,0.4c-0.6,0.2-1,0.7-1,1.3c0,0.6,0,1.2,0.1,1.8
		c0.1,0.8,0.6,1.2,1.5,1c-0.1-0.4-0.3-0.9-0.4-1.3c0.1,0,0.1,0,0.2-0.1c0.1,0.2,0.2,0.5,0.4,0.7c0.1,0.1,0.3,0.2,0.5,0.4
		c0-0.2,0-0.4,0-0.6c-0.1-0.3-0.2-0.7-0.3-1c0.1,0,0.1-0.1,0.2-0.1c0.1,0.2,0.3,0.5,0.4,0.7c0,0,0.1,0,0.1,0c0-0.4-0.1-0.7-0.1-1.2
		c0.3,0.2,0.5,0.3,0.8,0.5c-0.1-0.3-0.1-0.4-0.2-0.6c0-0.2-0.1-0.3-0.1-0.5c0,0,0.1-0.1,0.1-0.1c0.6,1,1.9,1.3,2.2,2.5
		c0.1,0,0.1-0.1,0.2-0.1c0-0.3,0-0.6,0.1-0.9c0.4,0.3,0.3,1.1,1,1.1C73.2,43.3,73.2,43,73.2,42.6z M78.3,46.6
		c0.2,0.3,0.4,0.4,0.5,0.5c0.2,0.2,0.4,0.3,0.7,0c0.2-0.2,0.3-0.5,0-0.7c-0.3-0.3-0.8-0.6-1.1-0.6c-0.6,0-1.2,0.2-1.9,0.3
		c0.1,0.2,0.2,0.4,0.1,0.6c0,0.2-0.2,0.5-0.4,0.5c-0.4,0-0.8-0.1-1.1-0.3c-0.2-0.1-0.5-0.4-0.5-0.7c0-0.2,0.3-0.5,0.5-0.8
		c-0.9-0.3-1.7-0.7-2.6-0.9c-0.8-0.2-1.7-0.1-2.6-0.1c-1.2-0.1-2,0.6-2.2,1.8c-0.1,0.8,0.2,1.5,0.9,1.8c-0.1-0.3-0.2-0.5-0.2-0.8
		c0.6,0.1,0.5,1,1.1,0.9c-0.1-0.3-0.1-0.6-0.2-0.8c0,0,0.1,0,0.1,0c0.1,0.1,0.2,0.3,0.3,0.4c0.5-0.5,0.8-1,0.6-1.7
		c0.1,0.1,0.2,0.3,0.3,0.4c0.2-0.1,0.4-0.2,0.7-0.3c0-0.2,0-0.3,0.1-0.6c0.3,0.2,0.5,0.4,0.8,0.7c-0.1-0.4-0.2-0.6-0.3-0.8
		c0,0,0.1,0,0.1-0.1c0.4,0.4,0.8,0.8,1.2,1.1c0,0,0.1-0.1,0.1-0.1c-0.1-0.3-0.2-0.7-0.4-1c0.1,0,0.1-0.1,0.2-0.1
		c0.1,0.2,0.3,0.4,0.4,0.7c0.1,0.1,0.2,0.3,0.2,0.3c0.7-0.2,0.6,0.3,0.6,0.7c0.1,0.5,0.5,0.8,1,0.8c0.3,0,0.7-0.1,0.9-0.3
		c0.5-0.3,1-0.5,1.7-0.2C78.2,47,78.2,46.9,78.3,46.6z M68.1,27.8c0,0.6,0,1.1,0,1.6c0,0.4-0.3,0.6-0.8,0.6
		c-0.5-0.1-0.9-0.3-1.1-0.8c-0.2-0.6-0.2-1.1,0.4-1.5c0.2-0.1,0.3-0.3,0.5-0.5c-1.1-0.3-1.9,0-2.6,0.5c-0.2,0.1-0.4,0.5-0.5,0.8
		c-0.1,0.4,0,0.8,0,1.2c0.1,0.9,0.7,1.2,1.5,0.9c0.6-0.2,1.4-0.3,2-0.2c1.3,0.3,2.5,0.8,3.7,1.3c0.3,0.1,0.7,0.2,0.9-0.2
		c0.1-0.3,0.2-0.7-0.2-0.9c-0.5-0.2-1-0.5-1.5-0.7c0,0.3,0,0.4,0,0.5c-0.1,0.2-0.2,0.4-0.2,0.6c-0.1-0.2-0.3-0.4-0.3-0.6
		c-0.2-0.6-0.2-1.2-0.5-1.7C69,28.3,68.7,27.7,68.1,27.8z M53.1,132.2c0.6-1,1.2-1.9,1.8-2.8c0.6-0.9,1.1-1.8,1.7-2.8
		c0.1-0.2,0-0.5,0-0.8c-0.2,0.1-0.5,0.1-0.8,0.2c-0.7,0.5-1.3,1-2,1.5c-0.8,0.4-1.3,1.1-1.9,1.8c-0.7,0.8-0.6,1.4,0.2,2.1
		C52.4,131.6,52.7,131.8,53.1,132.2z M66.4,31.4c0.2,0.4,0.4,0.7,0.6,1.1c0.1,0.1,0.3,0.1,0.5,0.2c0.1-0.3,0.2-0.7,0.1-1
		c0-0.2-0.3-0.5-0.6-0.5c-0.6-0.1-1.1,0-1.6,0.4c-0.6,0.5-0.7,1-0.8,1.6c0,0.4,0.7,1.2,1.2,1.3c0.8,0.3,1.5,0.1,2.2-0.4
		c0.5-0.3,0.9-0.3,1.4-0.1c0.4,0.2,0.7,0.4,1,0.7c0.4,0.3,0.9,0.5,1.5,0.4c-0.2-0.9-0.6-1.6-1.2-2.1c-0.6-0.5-1.4-0.9-2.2-1.3
		c0.1,0.8-0.3,1.7-0.8,1.9c-0.5,0.2-1,0-1.3-0.4C65.9,32.6,65.9,32.1,66.4,31.4z M64.9,78.6c0,0.1,0,0.2,0,0.3
		c0.2,0.1,0.4,0.2,0.6,0.3c0.9,0.3,1.8,0.5,2.7,0.8c1.5,0.4,3,0.6,4.4-0.6c0.7-0.6,1.3-1.3,1.9-2c0.1-0.1,0-0.4,0-0.6
		c-0.3,0-0.5,0-0.8,0.1c-0.1,0-0.2,0.3-0.3,0.4c-0.4,0.4-0.7,0.9-1.2,1.1c-0.6,0.2-1.3,0.1-2,0.1C68.3,78.5,66.6,78.5,64.9,78.6z
		 M69.2,19.4c-0.1,0-0.1,0.1-0.2,0.1c0.2,0,0.5,0,0.7,0.1c0.5,0.2,0.8,0,0.9-0.4c0.1-0.3-0.1-0.7-0.3-0.8c-0.8-0.7-1.7-1.2-2.7-1.4
		c-1.2-0.2-1.4-0.2-2,0.9c-0.5,0.9-0.1,1.9,0.8,2c0.6,0.1,1.3-0.1,2-0.1c-0.3-0.7-0.6-1.3-0.9-1.9c0-0.1,0-0.3,0.1-0.4
		c0,0,0.2-0.1,0.3,0c0.4,0.3,0.9,0.6,1.2,1C69.2,18.8,69.2,19.1,69.2,19.4z M73.8,17.1c-1.9-1.7-1.7-1.6-4.1-2
		c-0.4,0.2-0.6,0.5-0.8,0.4c-0.2-0.1-0.5-0.4-0.6-0.6c-0.1-0.8,0.8-0.4,1.1-0.8c-0.8-0.6-2-0.5-2.6,0.1c-0.2,0.2-0.1,1.7,0.2,1.8
		c0.8,0.2,1.7,0.6,2.6,0.6C71,16.5,72.4,16.2,73.8,17.1z M68,25.5c0,0.2,0.1,0.4,0.1,0.7c0,0.2,0,0.4,0,0.6c0.1,0,0.1,0,0.2,0
		c0.1-0.3,0.2-0.5,0.2-0.8c0.2,0.1,0.3,0.3,0.3,0.4c0.1,0.8,0.3,1,1.1,1.1c0-0.3,0-0.6-0.1-0.8c-0.8-0.1-0.9-0.3-1-1
		c0-0.3,0-0.7-0.2-0.8c-0.6-0.5-1.3-0.6-2.1-0.4c-0.3,0.1-0.6,0.2-0.9,0.2c-0.6,0-1.1,0-1.2,0.7c-0.1,0.3-0.3,0.7-0.1,0.9
		c0.2,0.3,0.5,0.6,1,0.4c0.3-0.1,0.7-0.2,1-0.2C67.4,26.3,67.4,26.3,68,25.5z M54.8,109.8c0.8,0.3,0.8,0.3,1.5,1
		c0.7,0.7,1.3,0.5,1.6-0.4c0.3-1.1,0.7-2,1.5-2.7c0.2-0.2,0.5-0.7,0.4-0.9c-0.2-0.6-0.9-0.7-1.5-0.8c-0.3,0-0.7,0.2-0.8,0.5
		c-0.1,0.3-0.1,0.7,0,1c0.3,1.3-0.2,2.1-1.5,2.3C55.6,109.9,55.2,109.8,54.8,109.8z M67.5,22.2c0.1,0,0.1,0,0.2,0
		c0.1,0.2,0.2,0.4,0.3,0.8c0-0.5,0-0.8,0-1.2c0.8,0.2,0.2,1,0.6,1.3c0-0.4,0.1-0.7,0.1-1c0.1,0,0.1,0,0.2-0.1
		c0.1,0.2,0.2,0.4,0.2,0.6c0.1,0.9,0.1,0.9,0.9,1.2c0.1-1-0.3-1.9-1.2-2.2c-1-0.4-2.1-0.5-3.2-0.7c-0.1,0-0.4,0.2-0.5,0.3
		c-0.1,0.5-0.2,1.1-0.3,1.7c-0.1,0.5,0.3,0.7,0.7,0.7c0.4,0,1,0.1,1-0.6c0-0.2,0.1-0.3,0.2-0.5c0,0,0.1,0,0.1,0
		c0.1,0.3,0.1,0.6,0.2,0.8c0,0,0.1,0,0.1,0C67.3,23,67.4,22.6,67.5,22.2z M50.9,101.2c0,0.1-0.1,0.2-0.1,0.3c0.3,0.2,0.7,0.4,1,0.5
		c0.9,0.2,1.9,0.3,2.8,0.4c1,0.1,2,0.1,2.9-0.5C55.3,101.3,53.2,100.6,50.9,101.2z M52.7,118.9c0-0.1-0.1-0.1-0.1-0.2
		c-1.8,0-3.5,0.4-5.1,1c-0.3,0.1-0.5,0.4-0.8,0.7c0.3,0.1,0.7,0.4,1,0.3c1.5-0.2,3-0.4,4.3-1.4C52.2,119.1,52.5,119,52.7,118.9z
		 M73.4,58.3c0.3,0,0.5,0.1,0.7,0.1c0.6,0.1,1.4,0.6,1.8,0.4c0.5-0.2,0.8-1,1.2-1.5c0,0,0-0.1,0-0.1c-0.4-0.5-0.8-1-1.3-1.6
		c-0.3,0.3-0.6,0.6-0.6,0.9c-0.1,0.7-0.5,1-1,1.4C73.9,57.9,73.7,58.1,73.4,58.3z M54.7,118.2c0,0.1,0,0.1,0.1,0.2
		c0.5-0.1,1,0,1.5-0.2c0.8-0.4,1.4-1.9,1.2-2.7c-0.1-0.3-0.5-0.6-0.7-0.9c-0.2,0.3-0.5,0.5-0.7,0.8c-0.1,0.1-0.1,0.3-0.1,0.5
		C56,116.9,55.3,117.6,54.7,118.2z M80,69.6c-0.7,0-1.1,0.6-0.7,1.2c0.1,0.1,0.2,0.3,0.2,0.4c-0.1,1,0.7,1.8,0.9,2.7
		c0,0.1,0.3,0.4,0.4,0.3c0.2-0.1,0.5-0.3,0.5-0.5c0-0.4,0-0.8-0.1-1.1C80.8,71.7,80.4,70.7,80,69.6z M54.8,111c0-0.1,0-0.1,0-0.2
		c-0.5,0-1.2-0.3-1.5-0.1c-1.1,0.8-2.2,0.7-3.5,0.5c-0.9-0.1-1.4-0.5-1.5-1.6c-0.3,0.2-0.7,0.4-0.7,0.5c0,0.3,0.3,0.5,0.4,0.8
		c0,0,0.1,0,0.1,0.1c0.7,0.3,1.4,0.7,2.3,0.8C52,111.8,53.5,111.9,54.8,111z M68.2,94.7c0.4-0.7,0.8-1.3,1.2-1.9
		c0.1-0.1-0.1-0.5-0.2-0.5c-0.6-0.1-1.2-0.2-1.8-0.3c-0.1,0-0.3,0.1-0.3,0.2C66.8,92.9,67.5,94.4,68.2,94.7z M73.8,20.7
		c0-0.5-0.3-0.9-0.7-1.1c-0.3-0.1-0.6-0.2-0.9-0.2c-0.2,0-0.5,0.1-0.5,0.3c-0.1,0.1,0,0.5,0.1,0.6c0.4,0.4,0.9,0.8,1.3,1.2
		c0.3,0.2,0.5,0.1,0.7-0.2C73.7,21.1,73.8,20.9,73.8,20.7z M70.7,86.4c-0.1,0-0.1,0-0.2-0.1c-0.1,0.2-0.2,0.5-0.2,0.7
		c0.3,0.9,0.7,1.8,1,2.8c0.1,0.4,0.5,0.5,0.8,0.4c0.1-0.1,0.1-0.5,0.1-0.7C71.7,88.4,71.2,87.4,70.7,86.4z M70.9,23.5
		c-0.1,1.4,0,1.6,1.2,1.8c0.2,0,0.7,0,0.8-0.2c0.1-0.3,0.1-0.7-0.1-0.9C72.4,23.6,71.6,23.5,70.9,23.5z M63.4,101.9
		c0-0.3-0.1-0.6-0.1-0.9c0-0.8-0.2-1.4-1.1-1.5c0,0-0.1,0-0.1,0c-0.3,0.4-0.6,0.8-0.8,1.2C62,101.2,62.7,101.6,63.4,101.9z
		 M72.6,34.8c-0.1,0.6,0,0.9,0.5,1.2c0.6,0.4,1.4,0.4,2,0C74.7,34.5,73.5,35.1,72.6,34.8z M72.3,52.9c0.8-0.3,1.6-0.5,2.4-0.8
		c-0.1-0.3-0.2-0.6-0.3-0.9c-0.3-0.5-0.8-0.5-1-0.1C73.1,51.6,72.8,52.2,72.3,52.9z M52.9,110.4c-1.2-0.4-2.3,0-3.5,0.1
		C50.7,111.1,52,111.1,52.9,110.4z M65.9,149.9c-1.6,0.2-1.5,1.6-2.2,2.5c0.1,0.1,0.1,0.1,0.2,0.2C64.6,151.7,65.2,150.8,65.9,149.9
		z M64,137.2c-0.4,1.3-0.4,3.2,0,3.4C64.1,139.5,64.4,138.3,64,137.2z M79,50.1c-0.3,0.7,0.4,1.9,1.3,2C80.3,51.6,79.7,50.6,79,50.1
		z M82.3,59.9c0,0,0.1-0.1,0.1-0.1c-0.8-0.7-1.7-1.5-2.6-2.2c-0.4,0.5,0,0.9,0.3,1.1C80.8,59.2,81.6,59.5,82.3,59.9z M61,83.5
		c0.1,0.9,1.4,1.5,2.7,1.3C62.8,84.4,61.9,84,61,83.5z M72.3,40.1c-0.7-0.4-1.2-0.6-1.8-0.9C71,40.7,71.1,40.7,72.3,40.1z
		 M67.3,27.9c-0.3,0.3-0.6,0.5-0.7,0.7c-0.1,0.2,0,0.4,0.1,0.6c0.1,0.1,0.4,0.3,0.5,0.2c0.2-0.1,0.3-0.3,0.3-0.5
		C67.6,28.6,67.4,28.3,67.3,27.9z M71.2,43.7c-0.1-0.3-0.2-0.5-0.3-0.7c-0.2-0.1-0.5-0.2-0.7-0.1c-0.2,0.1-0.3,0.4-0.4,0.6
		c0.2,0.1,0.4,0.2,0.6,0.2C70.6,43.8,70.8,43.7,71.2,43.7z M77.6,54.2c-0.3-0.6-0.3-0.6-1.2-0.5c0.2,0.3,0.3,0.6,0.5,0.6
		C77.1,54.4,77.4,54.3,77.6,54.2z M60.3,86.5c0,0.1,0,0.1-0.1,0.2c0.6,0.2,1.3,0.4,1.9,0.7c0-0.1,0-0.1,0.1-0.2
		C61.6,87,60.9,86.8,60.3,86.5z M72.5,36.8c-0.3-0.7-0.8-0.8-1.3-0.7c0,0.1,0,0.1-0.1,0.2C71.5,36.4,71.9,36.6,72.5,36.8z
		 M75.4,42.5c-0.3-0.2-0.6-0.3-0.9-0.5C74.4,42.7,74.5,42.7,75.4,42.5z M78.2,61.1c0.3-0.4,0.5-0.8-0.2-1
		C78.1,60.5,78.2,60.8,78.2,61.1z M71.7,28.6c0.1-0.1,0.2-0.2,0.3-0.3c-0.3-0.2-0.5-0.5-0.8-0.7c-0.1,0.1-0.1,0.1-0.2,0.2
		C71.2,28.1,71.4,28.3,71.7,28.6z M69.7,25.4c-0.1,0-0.2,0-0.3,0c0,0.2,0,0.5,0,0.7c0,0,0.2,0,0.4,0.1
		C69.8,25.9,69.8,25.6,69.7,25.4z"/>
	<path class="st0" d="M105.7,40.2c0.2,0,0.4-0.1,0.6,0c0.2,0.1,0.5,0.2,0.7,0.4c0.8,0.9,1.7,1.9,1.9,3.2c0.2,1,0.5,2.1,1.4,2.8
		c0.2,0.1,0.4,0.3,0.6,0.4c1,0.3,1.9,0.9,2.7,1.6c1.5,1.3,1.4,3.5-0.2,4.6c-0.6,0.4-1.4,0.7-1.5,1.6c0,0.4,0.1,0.9,0.3,1.2
		c0.8,1,1.8,1.7,3.2,1.8c0.9,0,1.6,0.6,2.1,1.3c0.7,1,1.6,1.5,2.8,1.6c0.3,0,0.6,0.2,0.9,0.4c-0.9,0.4-1.7,0.4-2.5,0
		c-0.9-0.5-1.8-1.1-2.7-1.7c-0.6-0.4-1.6-0.3-2.1,0.2c-0.9,0.9-1.9,1.8-2.8,2.8c0.5,0.8,1,1.7,1,2.9c0,0.7,0.6,1.1,1.2,1.4
		c0.3,0.2,0.7,0.4,1,0.6c-0.7,0-1.4,0-1.9-0.5c-0.6-0.7-1.2-1.4-1.6-2.2c-0.7-1.5-1.7-2.6-3.2-3.3c-1.3-0.7-2.7-0.9-4.1-0.6
		c-0.2,0-0.4,0.1-0.5,0.2c-1,0.8-2.2,1-3.5,1.2c-1.4,0.2-2.5-0.3-3.4-1.2c-0.8-0.7-1.4-1.7-1.7-2.7c0-0.1,0.1-0.3,0.1-0.4
		c0.2,0.1,0.4,0.1,0.5,0.2c0.9,1.3,2,2.3,3.6,2.7c1.3,0.3,2.7,0.3,3.9-0.2c0.7-0.3,1.4-0.6,2.2-0.8c1.5-0.3,2.8,0,4.2,0.6
		c0.9,0.4,1.9,0.8,2.9,0.2c0.4-0.2,0.8-0.6,1.1-1c0.1-0.1-0.1-0.5-0.2-0.7c-0.5-0.7-1.2-1.3-1.7-2.1c-0.4-0.7-0.4-1.4-0.1-2.2
		c0.3-1.1,1-1.7,2-2.1c1.1-0.5,1.1-1.4,0.2-2.4c-0.6-0.7-1.5-1.1-2.2-1.6c-0.8-0.6-1.6-1.2-2.3-2c-0.4-0.5-0.5-1.2-0.6-1.9
		c-0.1-0.6-0.2-1.3-0.3-1.9c-0.1-0.8-0.6-1.4-1.3-1.8c-0.1-0.1-0.2-0.2-0.3-0.2C105.7,40.3,105.7,40.2,105.7,40.2z"/>
	<path class="st0" d="M88.1,110.3c0.2-0.1,0.3-0.3,0.5-0.4c0.4-0.3,0.5-0.8,0.5-1.3c-0.1-0.9-0.2-1.8-0.1-2.6c0.3-1.8,1-3.3,2.6-4.2
		c0.7-0.4,1.4-0.7,2.2-1.1c0.9-0.5,1.7-0.9,1.8-2c-1-0.2-2-0.3-3-0.6c-1.2-0.4-2.2-1.2-2.7-2.4c-0.2-0.4-0.1-0.9-0.2-1.4
		c-1.9,1.8-3.9,2.9-6.7,1.9c0,0.8,0,1.3,0,1.9c0,1.5-1,2.4-2.2,3.2c-0.2,0.1-0.4,0-0.7,0c0-0.2,0-0.5,0.1-0.6c1.6-1.5,1.5-3.6,0-5.4
		c-0.4-0.4-0.8-0.9-1.2-1.3c0-0.1,0.1-0.2,0.1-0.2c0.1-0.2,0.3-0.6,0.4-0.6c0.2-0.1,0.5,0.1,0.7,0.3c1.7,1.2,3.7,1.4,5.7,1.1
		c1.4-0.2,2.4-1.3,3.3-2.3c0.3-0.3,0.5-0.6,0.8-0.8c0.2-0.1,0.5-0.1,0.7,0c0.1,0,0.2,0.4,0.2,0.5c0,0.7-0.2,1.5-0.2,2.2
		c0.1,1.5,1.1,2.4,2.5,2.9c1.3,0.5,2.6,0.5,3.9,0.1c0.1,0,0.2-0.1,0.3-0.1c0.2,0,0.7,0,0.7,0.1c0.1,0.3,0.1,0.7-0.3,0.9
		c-0.4,0.3-0.9,0.7-1.2,1.1c-0.2,0.3-0.4,0.6-0.5,0.9c-0.4,0.9-1.1,1.7-2.1,2c-1,0.3-1.7,1-2.2,1.8c-0.9,1.6-1.7,3.2-2.1,5
		c-0.1,0.6-0.3,1.3-1,1.6c-0.3,0.1-0.6,0.1-0.9,0.2C88.2,110.5,88.1,110.4,88.1,110.3z"/>
	<path class="st0" d="M101.2,38.3c0,1-0.3,1.7-0.9,2.3c-0.1,0.1-0.3,0.3-0.5,0.4c-0.5,0.4-0.8,0.9-0.6,1.6c0.1,0.4-0.1,0.8,0,1.1
		c0.2,1.3,1,2.2,2.2,2.6c1.3,0.5,2.4,1.2,2.6,2.7c0.1,0.7-0.1,1.2-0.6,1.7c-0.3,0.3-0.7,0.6-1.1,0.9c-0.6,0.5-0.6,1.1,0,1.5
		c0.6,0.4,1.4,0.7,2.1,0.9c0.7,0.2,1.4,0,2.1,0.1c0.6,0.1,0.9-0.2,1.2-0.6c0.1-0.1,0.2-0.3,0.3-0.3c0.1,0,0.3,0,0.4,0.1
		c0.1,0.1,0,0.3,0,0.4c-0.3,0.7-0.9,1-1.5,1.3c-1.1,0.5-2.2,0.7-3.3,0.4c-0.8-0.2-1.7-0.6-2.4-1.1c-1-0.7-0.9-2.5,0-3.3
		c0.3-0.2,0.6-0.4,0.9-0.7c0.7-0.5,0.8-1,0.3-1.7c-0.3-0.4-0.6-0.7-1.2-0.8c-1.3-0.3-2.3-1-3.2-2c-0.6-0.7-0.5-1.5-0.4-2.3
		c0-0.3-0.1-0.6-0.1-0.9c-0.3-2.1-2.1-2.4-3.6-2.7c-1.6-0.3-2.8-1.1-3.3-2.6c-0.3-1-0.4-2.2-0.1-3.3c0.2-0.8,0.4-1.6,0.3-2.3
		c-0.1-0.7-0.6-1.3-0.9-1.9c-0.1-0.2-0.1-0.3-0.2-0.5c0.2,0,0.4-0.1,0.6-0.1c0.1,0,0.1,0.1,0.2,0.1c0.6,0.8,1.3,1.6,1.4,2.6
		c0,0.3,0,0.5,0,0.8c-0.2,1.9,0.3,3.6,1.5,5.1c0.7,0.9,1.7,1.1,2.7,1.4c0.6,0.2,1.3,0.5,1.9,0.8c0.1,0,0.3,0.1,0.4,0.1
		c0.9-0.3,1.7-0.7,2.3-1.4C100.9,38.5,101,38.4,101.2,38.3z"/>
	<path class="st0" d="M118.6,80.2c-0.7,0.1-1.3,0.1-1.9,0.2c-0.7,0-1.7-0.8-1.4-1.8c0.2-0.7,0.4-1.5-0.2-2.1
		c-0.4-0.5-0.9-0.6-1.4-0.2c-0.7,0.7-1.6,1.1-2.6,1.3c-2.1,0.4-3.2-0.6-4.1-2.4c0-0.1,0-0.3,0-0.3c0.1-0.1,0.2-0.1,0.3,0
		c0.2,0.1,0.3,0.2,0.4,0.3c1.1,1.3,3.4,1.7,4.8,0.5c0.6-0.4,1.1-1,1.9-0.9c1,0.1,2.1,1.4,1.9,2.4c-0.1,0.4-0.1,0.8-0.1,1.3
		c0,0.1,0,0.2,0.1,0.3c0.5,0.6,2.3,0.5,2.6-0.2c0.3-0.5,0.5-1.1,0.9-1.4c0.6-0.5,1.3-0.9,2.2-0.8c0.9,0.1,1.3,0.8,1.4,1.6
		c0.1,0.3,0.1,0.6,0,0.9c0,0.2-0.2,0.4-0.3,0.6c-0.2-0.1-0.4-0.2-0.5-0.4c-0.4-0.4-0.7-1-1.1-1.3c-0.5-0.3-1,0-1.2,0.5
		c-0.2,0.4-0.5,0.8-0.7,1.2c-0.1,0.1-0.1,0.3-0.1,0.4c0.2,0.5,0.1,1-0.2,1.5c-0.5,0.6-0.3,1.2-0.1,1.7c0.7,1.7,0.2,2.8-1.4,3.6
		c-0.3,0.1-0.6,0.3-0.9,0.4c-1.5,0.3-1.8,1.5-2.2,2.7c0,0.2,0,0.4-0.1,0.5c-0.1,0.2-0.3,0.3-0.5,0.5c-0.1-0.2-0.3-0.5-0.2-0.7
		c0.1-0.6,0.4-1.3,0.6-1.9c0.1-0.4,0.4-0.9,0.5-1.3c0.4-0.9,1-1.5,2-1.7c0.9-0.2,1.2-0.9,0.7-1.7c-0.5-0.9-0.5-1.8,0.6-2.5
		C118.7,80.8,118.8,80.5,118.6,80.2z"/>
	<path class="st0" d="M110.9,105.2c0.7,0.3,1.2,0.7,1.7,0.8c1.7,0.5,3.2,0,4.6-1.1c0.8-0.6,1.1-1.6,1.4-2.5c0.1-0.3-0.1-0.7-0.2-1.1
		c-0.2-0.9-0.5-1.8-0.3-2.8c0.2-1.2,0.9-2,1.9-2.6c0.7-0.4,1.3-0.9,1.9-1.3c0.4-0.3,0.4-0.7,0.4-1.3c-0.1-0.8-0.4-1.6-0.2-2.3
		c0.2-1.1,0.8-2,1.6-2.8c0.1-0.1,0.3,0,0.4,0c0,0.1,0,0.3,0,0.4c-0.3,0.6-0.6,1.3-0.9,1.9c-0.4,1.1-0.1,2.2,0.1,3.2
		c0.2,0.8-0.2,1.4-0.7,1.9c-0.5,0.4-1.1,0.8-1.7,1.1c-1.1,0.5-2.1,1.9-1.6,3.4c0.3,0.8,0.4,1.6,0.5,2.4c0,0.4-0.1,0.9-0.2,1.4
		c-0.2,0.7-0.1,1.2,0.5,1.4c1.4,0.6,2.1,1.7,2.5,3.1c0,0.2-0.1,0.5-0.2,0.7c-0.2-0.1-0.6-0.1-0.7-0.3c-0.6-1-1.5-1.7-2.7-1.8
		c-0.9-0.1-1.8,0-2.6,0.1c-1.6,0.3-3.1,0.3-4.5-0.5C111.1,106.5,111,105.9,110.9,105.2z"/>
	<path class="st0" d="M112.9,104.2c0.2-0.6,0.4-1.4,0.7-1.9c0.6-1-0.1-2.2-1-2.5c-1-0.3-1.6-0.8-2.3-1.6c-0.8,0.9-1.6,1.7-2.8,2
		c-1.1,0.3-2.1,0.4-3.2,0.3c-0.6-0.1-1.3,0.2-2,0.4c-0.3,0.1-0.7,0.2-1,0.4c-0.6,0.4-1,0-1.5-0.1c0-0.1-0.1-0.1-0.1-0.2
		c0.3-0.2,0.5-0.5,0.8-0.7c1.5-0.8,3-1.3,4.8-1c2.2,0.3,3.4-0.6,4.2-2.8c0.5-1.3,0.5-2.5-0.1-3.8c-0.7-1.6-0.5-3.1,0.5-4.6
		c0.3-0.4,0.5-0.9,0.8-1.3c0.2-0.3,0.5-0.5,0.8-0.3c0.3,0.2,0.2,0.6,0,0.9c-0.4,0.8-0.9,1.7-1.2,2.6c-0.1,0.3,0,0.8,0.1,1.2
		c0.1,0.5,0.2,1,0.4,1.4c0.6,1.3,0.5,2.7,0.7,4c0.1,0.8,0.6,1.5,1.5,1.7c1.3,0.4,2.4,2.3,1.9,3.6c-0.2,0.7-0.6,1.3-1,1.9
		c-0.1,0.2-0.5,0.3-0.8,0.4C113,104.4,113,104.3,112.9,104.2z"/>
	<path class="st0" d="M97.8,88.5c0-0.8,0.3-1.4,0.8-2c0.5-0.5,0.9-1,1.4-1.4c0.9-0.8,1.3-1.8,1.3-3c0-1.1-0.1-2.3,0.5-3.3
		c0.4-0.7,0.9-1.4,1.5-2.1c0.2-0.2,0.5-0.3,0.8-0.4c0.1,0,0.2,0.1,0.2,0.1c0,0.1,0,0.3-0.1,0.4c-0.3,0.4-0.6,0.7-0.9,1
		c-0.7,0.9-0.9,2.1-0.6,3.1c0.7,2.3-0.5,3.9-2,5.3c-0.5,0.5-1,1.2-1.4,1.8c-0.1,0.2-0.2,0.5-0.1,0.6c0.2,0.1,0.5,0.1,0.7,0.2
		c0.5,0.1,1.1,0,1.6,0.2c0.7,0.3,0.8,0.7,0.6,1.4c-0.3,0.7-0.6,1.4-0.9,2c-0.2,0.4,0.3,1.4,0.8,1.6c0.5,0.2,1.1,0.2,1.6,0.4
		c0.9,0.4,2,0.6,2.5,1.7c0.2,0.4,0,0.7-0.3,0.9c-0.1,0-0.4-0.2-0.5-0.4c-0.4-0.9-1.3-0.8-2.1-1.1c-1-0.3-2-0.5-2.8-1
		c-0.9-0.5-1.2-1.6-0.5-2.6c0.4-0.5,0.8-0.9,1.1-1.3c0.1-0.1,0.2-0.4,0.1-0.5c-0.1-0.1-0.3-0.2-0.5-0.1c-0.3,0-0.6,0.1-0.8,0.1
		C98.5,90.3,97.8,89.7,97.8,88.5z"/>
	<path class="st0" d="M74.2,137.5c0.2,0.3,0.4,0.5,0.5,0.7c0.2,0.5,0.3,1,0.4,1.5c0.1,0.5,0.4,0.6,0.8,0.6c0.8,0,1.7,0,2.5,0
		c0.2,0,0.4,0,0.5,0.1c0.4,0.5,0.8,0.3,1.2,0c0.8-0.4,1.7-0.8,2.7-0.5c0.2,0.1,0.6-0.1,0.8-0.3c0.5-0.4,0.9-0.8,1.3-1.2
		c1.3-1.2,2.7-2.1,4.6-1.6c0.5,0.1,0.9,0,1.2-0.5c0.1-0.2,0.4-0.3,0.7-0.6c0.1,1.3-0.7,2.1-1.7,2c-1.2-0.1-2.5-0.2-3.5,0.7
		c-0.2,0.2-0.4,0.5-0.4,0.7c0,0.2,0.2,0.5,0.4,0.6c0.6,0.3,1.3,0.6,1.9,0.9c0.4,0.2,0.7,0.5,1,0.8c0.5,0.7,0.4,1-0.3,1.5
		c-0.1-0.3,0-0.7-0.2-0.9c-0.1-0.3-0.4-0.5-0.7-0.6c-0.8-0.4-1.6-0.7-2.4-1c-0.1-0.1-0.3,0-0.5,0c-0.8,0.4-1.6,0.7-2.6,0.4
		c-0.2-0.1-0.6,0.1-0.8,0.2c-1,0.9-2.1,0.8-3.3,0.2c-0.2-0.1-0.5-0.1-0.8,0c-0.9,0.2-1.8,0.4-2.7-0.2
		C73.9,140.4,73.5,139,74.2,137.5z"/>
	<path class="st0" d="M99.8,149.3c0-0.2,0-0.5,0.1-0.7c0.5-1.1,1.2-2,2.3-2.6c0.5-0.3,1-0.5,1.5-0.6c2.1-0.4,3.8-1.4,4.9-3.3
		c0.9-1.5,2.3-2.4,3.8-3.3c0.3-0.2,0.6-0.2,0.8,0.2c0.2,0.4-0.1,0.5-0.3,0.6c-1.2,0.5-2.2,1.2-3,2.2c-0.5,0.6-0.9,1.3-1.3,2
		c-1,1.8-2.4,2.8-4.5,2.8c-1.5,0-2.4,0.8-3.1,1.9c-0.2,0.3-0.5,0.6-0.7,0.9C100,149.4,99.9,149.3,99.8,149.3z"/>
	<path class="st0" d="M115.4,81.6c-0.2,0.1-0.4,0.2-0.6,0.3c-1.1,0.3-1.9,1.2-2.6,2.1c-0.7,1-2.7,1.5-3.7,0.8
		c-0.7-0.5-1.3-1.1-1.9-1.6c-0.3-0.2-0.6-0.3-1-0.4c-0.1-0.1-0.3-0.2-0.4-0.3c0.1-0.2,0.3-0.5,0.4-0.5c0.8,0.2,1.7,0.3,2.5,0.6
		c0.4,0.2,0.8,0.6,1.2,0.8c0.9,0.5,1.9,0.3,2.5-0.5c0.8-0.9,1.9-1.2,3-1.6c0.2-0.1,0.4,0.1,0.6,0.2
		C115.4,81.5,115.4,81.5,115.4,81.6z"/>
	<path class="st0" d="M47.7,52.4c0.8-0.7,1.7-1.3,2.4-2.1c0.5-0.5,0.3-1.3,0.3-2c0-0.7-0.1-1.4-0.2-2c-0.1-0.5-0.2-0.9-0.4-1.4
		c-0.8-2.2-0.3-3.9,1.3-5.3c1.3-1.2,1.5-2.3,1-4c-0.2-0.7-0.1-1.5-0.1-2.2c0-0.5,0.1-1,0.2-1.4c0.1-0.3,0.3-0.5,0.5-0.8
		c0.1-0.1,0.3,0,0.4,0c0.1,0.1,0.1,0.3,0.1,0.5c-0.1,0.7-0.2,1.4-0.3,2.1c-0.1,1.4,0.8,2.1,1.9,2.6c0.6,0.3,1.3,0.3,2.1,0.5
		c0.1,0.4-0.1,0.5-0.5,0.5c-0.9,0-1.8,0.1-2.8,0.1c0,0.5,0,1,0,1.5c-0.1,0.9-0.5,1.6-1.1,2.3c-0.3,0.4-0.7,0.8-1.1,1.2
		c-0.9,0.8-1,1.8-0.8,2.9c0.1,0.6,0.3,1.3,0.6,1.9c0.8,1.5,0.2,3.1-0.9,4c-1.7,1.4-2.3,3.2-2.4,5.3c0,1.2,0,2.3-0.1,3.5
		c-0.1,1.6-0.8,2.9-1.8,4.1c-0.3,0.3-0.6,0.6-0.9,0.9c-0.3,0.4-0.6,0.7-0.8,1c1.1,1.1,2.2,2,3.2,3c0.4,0.4,0.8,0.5,1.4,0.3
		c0.9-0.4,1.8-0.6,2.8-0.5c0.9,0.1,1.7,0.6,2.2,1.4c0.7,1.2,1.7,1.5,2.9,1.5c1.5,0,2,0.4,2.4,1.9c0.1,0.5,0.4,0.9,0.5,1.4
		c0.1,0.2,0.1,0.4,0.1,0.5c0,0.1-0.2,0.3-0.3,0.3c-0.1,0-0.3-0.1-0.3-0.2c-0.3-0.7-0.6-1.4-0.9-2.1c-0.4-1-0.7-1.1-1.8-1.1
		c-0.6,0-1.3,0.1-1.8-0.2c-0.6-0.3-1.2-0.9-1.7-1.5c-0.7-0.8-1.3-1-2.3-0.3c-0.4,0.3-0.9,0.6-1.4,0.7c-1.1,0.2-1.9-0.3-2.6-1.1
		c-0.6-0.6-1.2-1.3-1.9-1.8c-0.9-0.7-2-0.8-3.1-0.4c-1.3,0.5-2.5,0.2-3.8-0.3c-1.1-0.5-2-1.4-2.8-2.3c-0.1-0.1-0.2-0.2-0.2-0.4
		c0-0.2,0-0.5,0-0.7c0.2,0.1,0.5,0.1,0.7,0.3c1.9,1.3,3.8,2.1,6.1,1.5c0.6-0.2,0.8-0.4,0.9-1c0.1-0.9,0.8-1.4,1.4-2
		c1.4-1.4,2.5-2.9,2.6-5.1c0.1-1.3,0-2.6-0.4-3.9c-0.3-1-1-1.7-2-2.2c-1.9-0.9-3.6-2.5-3.4-4.7c0.1-0.9,0.4-1.7,0.6-2.6
		c0.1-0.5,0.5-0.5,1-0.4c-0.1,0.4-0.2,0.8-0.4,1.2c-0.4,1.1-0.4,2.1,0.1,3.2c0.4,0.8,1.1,1.3,1.9,1.5C45.9,50.4,47,51.3,47.7,52.4z"
		/>
	<path class="st0" d="M66,59.4c-0.1,1.3-1.5,1.4-2.4,1c-0.8-0.4-1.6-1-2.3-1.5c-0.5-0.4-1.2-0.5-1.7-0.3c-1.2,0.4-2.4,0.9-3.6,1.5
		c-0.7,0.3-1,1.1-1.2,1.8c-0.1,0.4-0.2,0.8-0.3,1.2c-0.1,0-0.1,0-0.2,0.1c-0.1-0.2-0.3-0.3-0.3-0.5c-0.2-1,0.2-1.7,0.8-2.4
		c0.7-0.7,1.3-1.4,2.1-2c1.1-0.9,1.6-2.1,1.1-3.4c-0.4-1.4-0.4-2,1.1-3c0.4-0.3,0.8-0.6,0.7-1.1c-0.9,0.2-1.8,0.3-2.6,0.5
		c-1,0.2-1.4,0.8-1.2,1.7c0.4,1.8-0.4,3-2.2,3.4c-0.7,0.2-1.2,0.5-1.6,1.1c-0.1,0.2-0.4,0.4-0.6,0.6c-0.2-1,0.3-1.8,1.2-2.2
		c0.4-0.2,0.8-0.3,1.2-0.5c0.5-0.3,0.6-0.7,0.6-1.3c-0.1-1.1-0.3-2.3,0.8-3.2c0.6-0.5,1.3-0.7,2.1-0.7c0.2,0,0.4,0,0.6,0
		c1.4,0,1.8-0.8,1.3-2c-0.3-0.6-0.6-1.3-0.7-1.9c-0.3-1.1,0.4-1.9,1.2-2.7c1.2-1,1.3-2.2,0.3-3.4c-0.3-0.4-0.7-0.8-1-1.2
		c-0.7-0.8-0.7-2.6,0-3.4c0.7-0.9,1.3-1.7,2.4-2.1c0.2-0.1,0.5,0,0.8,0C62,33.7,62,34,61.8,34.1c-0.2,0.3-0.6,0.5-0.8,0.8
		c-0.9,0.9-1.3,2.4-0.2,3.6c0.7,0.8,1,1.8,1.1,2.8c0,0.5-0.2,1.1-0.5,1.6c-0.2,0.5-0.6,0.9-1,1.3c-0.8,0.8-0.8,1.5-0.2,2.5
		c0.4,0.6,0.9,1.2,1.2,1.9c0.7,1.9,0.5,3.2-1.5,4.5c-0.9,0.6-1.1,1.1-0.8,2.1c0.1,0.3,0.2,0.7,0.2,1.1c0,0.4,0.2,0.5,0.5,0.5
		c1.1,0,1.8,0.5,2.4,1.4C63,59.6,64.3,60.1,66,59.4z"/>
	<path class="st0" d="M30.5,72.6c-0.1,0.3-0.2,0.6-0.3,0.8c-0.8,0.9-1.7,1.5-3,1.2c-0.5-0.1-1.1-0.2-1.5,0c-0.5,0.3-0.9,0.8-1.3,1.2
		c-0.4,0.5-0.6,1.2-1.1,1.7c-0.5,0.5-1.2,1-1.9,1.4c-1.5,0.8-1.9,2.1-1.5,3.5c0.3,0.9,0.8,1.7,1.4,2.5c0.7,0.9,1.2,1.8,0.9,2.9
		c-0.4,1.4,0,2.5,0.7,3.6c0,0,0,0.1,0,0.1c0,0.2,0,0.3-0.1,0.5c-0.2,0-0.4,0-0.5-0.1c-0.7-0.8-1.2-1.7-1.3-2.8c0-0.6,0-1.1,0.1-1.7
		c0.1-0.8-0.4-1.4-0.8-1.9c-0.6-0.8-1.3-1.5-1.9-2.3c-0.6-0.9-0.6-1.9-0.4-2.8c0.3-1.3-0.4-2.6-1.5-3.1c-0.8-0.4-1.8,0.2-2,1.3
		c-0.1,0.5-0.2,0.9-0.3,1.4c0,0.1-0.2,0.3-0.4,0.4c-0.2-0.2-0.4-0.3-0.4-0.5c0-1.5,0.6-2.8,1.8-3.7c0.5-0.4,1.1-0.4,1.6-0.1
		c0.9,0.5,1.6,1.1,1.8,2.2c0,0.1,0.1,0.2,0.1,0.3c0.8-0.2,1.5-0.3,2.2-0.6c0.4-0.2,0.8-0.5,1.2-0.9c0.6-0.6,1.1-1.4,1.7-2
		c1-1.1,2.3-1.2,3.6-1.1c0.8,0,1.4-0.1,1.9-0.6c0.2-0.2,0.4-0.3,0.7-0.5C30.4,72.5,30.4,72.6,30.5,72.6z"/>
	<path class="st0" d="M30.3,140.3c0.1-0.5,0.2-1.1,0.2-1.6c0-1.1-0.6-1.7-1.7-1.8c-0.9-0.1-1.7-0.3-2.6-0.5c-1-0.3-1.3-0.8-1.3-1.8
		c0-0.5-0.1-0.8-0.7-0.7c-0.6,0.1-1.1,0.3-1.7,0.3c-0.6,0.1-1.3,0.2-1.9,0.1c-1.4-0.3-1.7-1.5-1.5-2.9c0.2-0.8,0.6-1.6,0.9-2.4
		c0.5-1.1,0.2-1.6-0.5-2.2c-0.3-0.3-0.7-0.5-1-0.8c-0.1-0.1-0.1-0.3-0.2-0.4c0.2,0,0.3-0.1,0.5-0.1c1.4,0.5,2.1,1.6,2.6,2.9
		c0.1,0.4-0.2,1-0.3,1.4c-0.5,1.3-0.1,2.4,0.9,3.1c0.4,0.2,0.7,0.3,1.1,0.1c0.5-0.2,1.1-0.4,1.6-0.3c0.8,0.1,1.2,0.4,1.3,1.8
		c0.1,0.8,0.3,0.9,1.1,0.9c0.9-0.1,1.8-0.3,2.5,0.3c1.5,1.1,2,2.6,1.2,4.2c-0.1,0.2-0.4,0.4-0.7,0.6
		C30.4,140.4,30.3,140.3,30.3,140.3z"/>
	<path class="st0" d="M27,141.4c0.2-0.2,0.3-0.4,0.5-0.5c0.1,0,0.4,0.2,0.4,0.2c0.1,2,1.4,2.4,2.6,2.6c1.3,0.2,2.2,1.3,2.5,2.3
		c0.1,0.2,0.1,0.4,0.1,0.5c0.1,0.8,0.6,1.3,1.3,1.8c0.6,0.4,1.1,1.1,1.6,1.7c0.1,0.1-0.1,0.3-0.1,0.4c-0.1,0-0.3-0.1-0.3-0.1
		c-0.4-0.9-1.3-1-2-1.6c-0.5-0.4-1.1-0.7-1.6-1.1c-0.3-0.2-0.4-0.6-0.5-0.9c-0.3-1.1-1.1-1.6-2.1-1.9c-1.1-0.3-1.6-1.3-2.1-2.3
		C27.2,142.2,27.1,141.9,27,141.4z"/>
	<path class="st0" d="M23.5,69.6c-0.1,0.8-0.4,1.3-1.1,1.7c-0.9,0.5-2.4,0.1-3.2-0.7c-1.2-1.3-0.9-2.7-0.2-4.1
		c0.7-1.2,1.2-2.5,0.8-3.9c0-0.1,0-0.1,0.1-0.3c0.2,0.3,0.5,0.5,0.5,0.8c0.4,1.2,0.3,2.4-0.3,3.5c-0.3,0.5-0.5,1.1-0.6,1.7
		c-0.2,1,0.5,1.6,1.2,2c0.7,0.4,1.4,0.2,2.1-0.3C23.1,69.8,23.3,69.7,23.5,69.6z"/>
	<path class="st0" d="M61.2,134.8c0.3-1.1-0.2-1.8-1-2.3c-1.1-0.6-1-1.7-0.9-2.6c0-0.1,0.2-0.3,0.3-0.3c0.1,0,0.3,0.2,0.3,0.3
		c0.1,1.3,1.1,2.1,1.7,3.1c0.4,0.6,0.6,1.2,0.3,1.9c-0.1,0.2-0.3,0.3-0.5,0.5C61.3,135.1,61.2,134.9,61.2,134.8z"/>
	<path class="st0" d="M79.4,67.5c0,0.7-1,1.3-1.5,1c-1-0.6-1.2-0.8-1-1.9c0.1-0.6,0.6-0.8,1.1-0.5c0.5,0.4,0.9,0.8,1.3,1.3
		C79.4,67.4,79.4,67.5,79.4,67.5z M78.7,67.3c-0.2-0.2-0.5-0.5-0.7-0.7c-0.1-0.1-0.3,0.1-0.5,0.1c-0.1,0.5,0.2,0.8,0.3,1.1
		C78.8,68.2,78.7,68,78.7,67.3z"/>
	<path class="st0" d="M77.7,62.4c0.3-0.4,1.3-0.4,1.5-0.1c0,0.1,0,0.2,0,0.3c0,0.1-0.2,0.1-0.3,0.1C78.5,62.6,78.1,62.5,77.7,62.4z"
		/>
</g>
</svg>
