<?xml version="1.0" encoding="utf-8"?>
<!-- Generator: Adobe Illustrator 19.0.0, SVG Export Plug-In . SVG Version: 6.00 Build 0)  -->
<svg version="1.1" id="Capa_1" xmlns="http://www.w3.org/2000/svg" xmlns:xlink="http://www.w3.org/1999/xlink" x="0px" y="0px"
	 viewBox="0 0 84.8 85.6" style="enable-background:new 0 0 84.8 85.6;" xml:space="preserve">
<style type="text/css">
	.st0{fill:#A18977;}
</style>
<g>
	<g id="XMLID_66_">
		<g id="XMLID_68_">
			<path id="XMLID_74_" class="st0" d="M24.4,14c5.2-3.2,11.4-5.1,17.9-5.1c18.9,0,34.4,15.4,34.4,34.4c0,7.2-2.2,13.9-6.1,19.4
				c0.2,0.2,0.3,0.3,0.5,0.4c0.9,0.6,1.9,1,3.1,1.1c0.1,0,0.3,0.1,0.4,0.1c4-6.1,6.3-13.3,6.3-21C80.9,22,63.6,4.7,42.3,4.7
				C32.8,4.7,24,8.2,17.3,14c0.2,0,0.4,0,0.5,0H24.4z"/>
			<path id="XMLID_73_" class="st0" d="M42.3,77.6c-1.9,0-3.7-0.2-5.5-0.4c-0.8,1.4-1.8,2.6-3,3.7c2.7,0.6,5.5,0.9,8.5,0.9
				c6.2,0,12.1-1.5,17.3-4.1c-2.2-0.2-3.9-1.1-5.3-2.2C50.5,76.9,46.5,77.6,42.3,77.6z"/>
			<path id="XMLID_72_" class="st0" d="M8,43.3c0-6.5,1.8-12.6,5-17.9c-1-1.1-1.6-2.6-1.6-4.3v-0.7c0,0,0-0.1,0-0.1
				c-4.8,6.4-7.6,14.4-7.6,22.9c0,8.7,2.9,16.7,7.8,23.2c1.2-0.8,2.6-1.4,4-1.6C10.8,58.9,8,51.4,8,43.3z"/>
			<path id="XMLID_71_" class="st0" d="M42.3,74.1c-1.4,0-2.7-0.1-4-0.3c-0.2,0.6-0.4,1.1-0.6,1.6c1.5,0.2,3.1,0.3,4.6,0.3
				c3.6,0,7.1-0.6,10.4-1.7c-0.4-0.4-0.8-0.9-1.2-1.4C48.6,73.6,45.5,74.1,42.3,74.1z"/>
			<path id="XMLID_70_" class="st0" d="M18.5,62.7c-4.3-5.3-6.9-12.1-6.9-19.4c0-5.8,1.6-11.3,4.5-15.9c-0.6-0.2-1.1-0.4-1.5-0.7
				c-2.9,4.9-4.6,10.5-4.6,16.6c0,8.2,3.1,15.7,8.1,21.4c0.2,0,0.3,0,0.5,0C18.4,63.9,18.4,63.2,18.5,62.7z"/>
			<path id="XMLID_69_" class="st0" d="M42.3,12.5c17,0,30.8,13.8,30.8,30.8c0,6.2-1.8,11.9-5,16.7c0.4,0.5,0.8,1,1.1,1.4
				c3.5-5.2,5.5-11.4,5.5-18.1c0-17.9-14.6-32.5-32.5-32.5c-5,0-9.8,1.1-14,3.2h4.5C35.8,13,39,12.5,42.3,12.5z"/>
		</g>
		<path id="XMLID_67_" class="st0" d="M19.5,80.2c-0.6,0-1.2-0.1-1.9-0.2c-0.2,0-0.3-0.1-0.5-0.1c-0.8-0.2-1.5-0.5-2.1-0.9
			c-0.7-0.4-1.2-1-1.6-1.7c-0.4-0.7-0.6-1.6-0.6-2.5c0-1.3,0.5-2.3,1.5-3.1c0.9-0.8,2-1.2,3.2-1.2c1.1,0,2,0.4,2.8,1.2
			c0.8,0.8,1.2,1.7,1.2,2.8c0,1.2-0.4,2.2-1.2,2.8c-0.5,0.4-1,0.6-1.7,0.8c0,0,0,0,0.1,0c0,0,0.1,0,0.1,0l0.1,0
			c0.3,0.1,0.6,0.2,0.8,0.2c1,0,1.8-0.3,2.4-0.9c0.3-0.3,0.5-0.6,0.7-1c0.3-0.5,0.5-1,0.7-1.5c0.3-1,0.5-2.1,0.6-3.3
			c0.1-0.7,0.3-8.8,0.3-10.1V29.2c0-0.8,0-1.6-0.1-2.3c-0.1-0.7-0.2-1.4-0.3-2c-0.1-0.5-0.2-0.9-0.5-1.1c-0.6-0.7-1.4-1.2-2.4-1.4
			c-1-0.2-2-0.4-3.1-0.6l-0.1,0c-0.1,0-0.1,0-0.2,0c-0.3,0-0.5-0.3-0.5-0.6v-0.7c0-0.3,0.3-0.6,0.6-0.6h23.7c0,0,0.1,0,0.1,0
			c2.4,0,4.6,0.1,6.5,0.3c2.5,0.2,4.8,0.9,6.9,2c2.1,1.1,3.9,2.7,5.2,4.6c1.3,1.9,2,4.4,2,7.4c0,1.8-0.3,3.5-1,4.9
			c-0.7,1.4-1.5,2.7-2.7,3.8c-1.1,1.1-2.4,2-3.8,2.8c-1.1,0.6-2.3,1.2-3.6,1.6c0.6,0.4,1.1,0.9,1.6,1.4c0.8,0.8,1.5,1.7,2.2,2.7
			c1.2,1.8,2.6,3.7,4,5.8c1.5,2.2,2.8,4,3.8,5.5c1.7,2.4,3.4,4.2,4.9,5.2c1.6,1.1,3.4,1.8,5.5,2.1c0.3,0,0.5,0.3,0.5,0.6v0.7
			c0,0.3-0.3,0.6-0.6,0.6H60.7c-2.7,0-4.2-2.2-6.4-5.5l-0.1-0.2c-1-1.4-1.7-2.6-2.4-3.6c-0.6-1-1.3-2-2.1-3.1
			c-0.7-1.1-1.5-2.1-2.3-3.1c-0.8-1-1.7-2.2-2.9-3.5c-0.9-1-1.9-2-3-3c-1-0.8-2-1.4-3.1-1.6c-0.1,0-0.2-0.2-0.2-0.3v-2
			c0-0.2,0.1-0.3,0.3-0.3c0.6,0,1.1-0.1,1.6-0.1c1.6-0.2,3.2-0.5,4.7-1c1.5-0.4,2.7-1.1,3.7-1.8c1-0.8,1.9-1.6,2.5-2.6
			c0.6-0.9,1.1-2,1.4-3.1c0.3-1.1,0.5-2.3,0.5-3.5c0-2.2-0.6-4.2-1.7-6c-1.1-1.7-2.8-3.1-4.9-4.2c-1.1-0.5-2.2-0.9-3.4-1.1
			c-0.6-0.1-1.2-0.2-1.8-0.3c-0.2,0-3.6,0-3.9,0c-1.1,0.1-2.7,0.6-3.5,2.2c-0.2,0.4-0.3,0.9-0.4,1.4c-0.1,0.4-0.1,0.8-0.1,1.3
			c0,0-0.1,2.8-0.1,3.4c0,1.1,0,2.3,0,3.4c0,1.1,0,2.3,0,3.4v32.1c-0.1,3.4-1.7,8-8.6,10.1C23.2,80,21.5,80.2,19.5,80.2z"/>
	</g>
</g>
</svg>
