<?xml version="1.0" encoding="utf-8"?>
<!-- Generator: Adobe Illustrator 19.0.0, SVG Export Plug-In . SVG Version: 6.00 Build 0)  -->
<svg version="1.1" id="Capa_1" xmlns="http://www.w3.org/2000/svg" xmlns:xlink="http://www.w3.org/1999/xlink" x="0px" y="0px"
	 viewBox="0 0 151.3 160.5" style="enable-background:new 0 0 151.3 160.5;" xml:space="preserve">
<style type="text/css">
	.st0{fill:#FFFFFF;stroke:#FFFFFF;stroke-miterlimit:10;}
	.st1{fill:#FFFFFF;}
</style>
<g id="XMLID_9_">
	<path id="XMLID_14_" class="st0" d="M124.8,34.3c-12.5-12.5-29.2-19.4-46.9-19.4c-17.7,0-34.4,6.9-46.9,19.4
		C18.4,46.9,11.5,63.5,11.5,81.3c0,23.7,12.5,45.3,32.8,57.2c0,0.2-0.1,0.5-0.1,0.7c0,2.8,2.2,5,5,5c2.8,0,5-2.2,5-5
		c0-2.8-2.2-5-5-5c-1.2,0-2.2,0.4-3.1,1.1C27,124,15.2,103.6,15.2,81.3c0-16.7,6.5-32.5,18.3-44.3c11.8-11.8,27.6-18.3,44.3-18.3
		c16.7,0,32.5,6.5,44.3,18.3c11.8,11.8,18.3,27.6,18.3,44.3c0,22.7-12.3,43.6-32.1,54.7c-11,5.2-21.4,6.6-30.4,2.9
		c-9.9-4-19.8-15-22.2-17.2c-1.1-1-1.8-2.7-2.4-4.1c-0.6-1.6-1.2-3.3-1.7-4.9c-0.9-2.7-1.8-5.4-3.1-8c-1.1-2.2-2.5-4.2-3.9-6.1
		c-1-1.3-1.9-2.6-2.7-3.9c-0.5-0.8-0.7-1.9-0.5-2.5c0.3-0.2,1.2-0.6,1.8-0.6c1.6,0,2.9,0.5,5.1,2.3c2.2,1.8,4,4.1,5.8,6.5
		c0.8,1,1.6,2.1,2.4,3.1c0.4,0.4,0.7,1,1,1.5c0.2,0.3,0.3,0.5,0.5,0.8c0.5,0.9,1.3,1.3,2.2,1.1c0.8-0.1,1.4-0.8,1.7-1.6
		c1.3-3.2,1.9-6.7,1.7-9.5c-0.3-6.6-0.9-13.3-1.4-19.8c-0.3-4-0.7-8.2-1-12.3c-0.2-3.1-0.1-6.3,0-9.3c0-0.8,0.2-1.6,2-1.7
		c0.8-0.1,1.4,0,1.8,1.7c0.4,1.5,0.7,3,1,4.5l0.1,0.3c0.6,3.3,1.2,6.5,1.8,9.8c0.9,4.8,1.8,9.7,2.7,14.5c0,0.1,0,0.2,0.1,0.3
		c0.3,1.6,0.6,3,1.5,3.7c0.4,0.3,0.9,0.4,1.5,0.3c1.8-0.2,1.9-2.4,2-3.5c0-0.1,0-0.2,0-0.2c0.2-2.1,0.4-4.3,0.6-6.3
		c0.2-2.6,0.5-5.3,0.8-7.9c0.8-7.4,1.6-14.7,2.5-21.9c0.2-1.5,1.3-2,2.2-2c0.4,0,0.8,0.2,1.1,0.5c0.4,0.5,0.6,1.3,0.6,2.1
		c-0.2,2.3-0.3,4.6-0.4,6.9l0,1c-0.4,8.2-0.8,16.6-1.2,25.9c0,0.6,0,1.1,0.1,1.6c0,0.1,0,0.2,0,0.4c0.1,1,0.2,1.5,0.5,2.4
		c0,0,0,0.1,0.1,0.1c0.4,0.7,1.1,1.2,1.9,1.3c0.9,0.1,1.7-0.2,2.2-0.9c0.1-0.2,0.2-0.4,0.3-0.6c0.8-2.7,1.5-5.8,2-9.1
		c0.7-4.9,1.4-9.9,2-14.7c0.3-2.5,0.6-5.1,1-7.6c0.1-0.5,0.3-1,0.7-1.3c0.2-0.2,0.5-0.2,0.8-0.2c1.2,0.2,1.4,1.9,1.4,2
		c-0.7,8.6-1.5,17.9-2.2,26.8L92.3,88c-0.1,1-0.1,2,0,3.3c0,0.1,0,0.3,0.1,0.4c0.3,0.8,0.9,1.4,1.7,1.6c0.8,0.2,1.7-0.1,2.3-0.7
		c0.1-0.1,0.2-0.2,0.2-0.3c0.9-1.4,1.5-2.7,2-4.6c1-3.6,1.8-7.2,2.5-10.5c0.5-2.4,1-4.8,1.6-7.2c0.1-0.2,0.8-1.3,1.8-1.1
		c0.8,0.2,0.9,2,0.7,3.6c-0.4,2.9-0.9,5.9-1.3,8.8c-0.6,3.8-1.2,7.7-1.7,11.6c-0.3,2.1-0.4,4.3-0.6,6.3c-0.2,2.9-0.4,5.6-0.9,8.4
		c-0.6,3-1.5,6-2.5,8.9c-0.5,1.6-1.1,3.3-1.5,5c-0.3,1-0.6,2.1-0.9,3.1l-0.1,0.4c-0.3,0.9,0.2,1.8,1.1,2c0.9,0.3,1.8-0.2,2-1.1
		l0.1-0.4c0.3-1,0.6-2.1,0.9-3.1c0.5-1.6,1-3.3,1.5-4.9c1-3,2-6.1,2.6-9.2c0.6-2.9,0.8-5.9,0.9-8.7c0.1-2,0.3-4.1,0.5-6.1
		c0.5-3.8,1.1-7.7,1.7-11.5c0.5-2.9,0.9-5.9,1.3-8.8c0.8-5.7-1.9-6.9-3.1-7.2c-3-0.7-5.3,1.8-5.7,3.4c-0.6,2.5-1.2,4.9-1.7,7.3
		c-0.7,3.1-1.4,6.3-2.3,9.6l0.3-3.4c0.7-9,1.5-18.3,2.2-26.8c0.1-1.2-0.7-4.8-4.1-5.4c-1.2-0.2-2.3,0.1-3.3,0.8
		c-1.1,0.8-1.8,2-2,3.4c-0.3,2.6-0.7,5.1-1,7.6c-0.6,4.8-1.2,9.7-1.9,14.6c-0.2,1.1-0.4,2.3-0.6,3.3c0.4-8.4,0.8-16.3,1.1-23.8l0-1
		c0.1-2.2,0.2-4.5,0.4-6.7c0.1-1.7-0.4-3.4-1.4-4.5c-0.9-1-2.1-1.6-3.4-1.6c-0.1,0-0.1,0-0.2,0c-2.8,0-5,1.9-5.4,4.8
		c-0.9,7.3-1.7,14.5-2.5,22c-0.3,2.7-0.5,5.4-0.8,8c0,0.4-0.1,0.8-0.1,1.2c-0.6-3.4-1.3-6.9-1.9-10.2c-0.6-3.3-1.2-6.5-1.8-9.8
		l-0.1-0.3c-0.3-1.6-0.6-3.2-1-4.8c-0.5-2-1.9-4.4-5.2-4.1c-3.1,0.2-4.9,2-5,4.8c-0.1,3-0.3,6.4,0,9.7c0.3,4.1,0.6,8.3,1,12.4
		c0.5,6.4,1.1,13.1,1.4,19.7c0.1,1.8-0.2,4-0.9,6.2c-0.2-0.3-0.4-0.5-0.6-0.8c-0.8-1-1.6-2-2.3-3c-1.9-2.5-3.8-5.1-6.4-7.1
		c-2.4-1.9-4.4-3-7.2-3c-1.5,0-4.1,0.9-4.7,2.5c-0.7,1.7-0.1,4,0.7,5.5c0.9,1.5,1.9,2.8,2.9,4.2c1.4,1.9,2.7,3.7,3.6,5.6
		c1.2,2.4,2,4.9,2.9,7.6c0.6,1.7,1.1,3.4,1.8,5.1c0.7,1.8,1.6,3.8,3.2,5.3c3,2.8,11.6,12.8,22.9,18.3c3.1,1.5,7.4,2.2,12.5,2.2
		c5.9,0,12.9-1.3,21-5.1c0,0,0,0,0,0c0,0,0,0,0,0c0,0,0,0,0,0c0,0,0.1,0,0.1,0c21-11.7,34.1-33.9,34.1-58
		C144.2,63.5,137.3,46.9,124.8,34.3z"/>
	<path id="XMLID_13_" class="st1" d="M42,44.7c-0.8-0.7-2-0.5-2.6,0.2c-7.2,8.6-12,19-14.1,30c-0.2,1,0.5,2,1.5,2.2
		c0.1,0,0.2,0,0.4,0c0.9,0,1.7-0.6,1.8-1.5c2-10.4,6.6-20.2,13.4-28.3C42.9,46.5,42.8,45.4,42,44.7z"/>
	<path id="XMLID_12_" class="st1" d="M36.2,73.7c0.1,0,0.2,0,0.4,0c0.9,0,1.7-0.6,1.8-1.5c1.1-5.8,3.6-11.2,7.4-15.7
		c0.7-0.8,0.5-2-0.2-2.6c-0.8-0.7-2-0.5-2.6,0.2c-4.1,5-7,11-8.2,17.4C34.5,72.5,35.2,73.5,36.2,73.7z"/>
	<path id="XMLID_11_" class="st1" d="M127.7,77.2c0.1,0,0.2,0,0.4,0c1-0.2,1.7-1.2,1.5-2.2c-2.1-11-7-21.4-14.1-30
		c-0.7-0.8-1.8-0.9-2.6-0.2c-0.8,0.7-0.9,1.8-0.2,2.6c6.8,8.1,11.4,18,13.4,28.3C126,76.6,126.8,77.2,127.7,77.2z"/>
	<path id="XMLID_10_" class="st1" d="M109.2,53.9c-0.8,0.7-0.9,1.8-0.2,2.6c3.7,4.5,6.3,9.9,7.4,15.7c0.2,0.9,1,1.5,1.8,1.5
		c0.1,0,0.2,0,0.4,0c1-0.2,1.7-1.2,1.5-2.2c-1.2-6.4-4-12.4-8.2-17.4C111.2,53.4,110,53.3,109.2,53.9z"/>
</g>
</svg>
